<svg version="1.1" xmlns="http://www.w3.org/2000/svg" viewBox="0 0 1558 1035" width="1558" height="1035">
  <!-- svg-source:excalidraw -->
  
  <defs>
    <style class="style-fonts">
      @font-face {
        font-family: "Virgil";
        src: url("https://excalidraw.com/Virgil.woff2");
      }
      @font-face {
        font-family: "Cascadia";
        src: url("https://excalidraw.com/Cascadia.woff2");
      }
    </style>
    
  </defs>
  <rect x="0" y="0" width="1558" height="1035" fill="#ffffff"></rect><g stroke-linecap="round" transform="translate(67 10) rotate(0 526.5 177)"><path d="M32 0 M32 0 C256.64 1.08, 482.16 0.25, 1021 0 M32 0 C359.83 -1.4, 687.47 -1.08, 1021 0 M1021 0 C1041.2 1.86, 1054.15 12, 1053 32 M1021 0 C1044.06 -1.02, 1051.21 9.35, 1053 32 M1053 32 C1050.61 130.78, 1050.63 229.42, 1053 322 M1053 32 C1051.67 116.51, 1051.32 202.56, 1053 322 M1053 322 C1052.56 342.75, 1040.54 352.89, 1021 354 M1053 322 C1051.77 342.29, 1043.44 352.93, 1021 354 M1021 354 C763.54 350.4, 506.6 349.71, 32 354 M1021 354 C628.49 357.08, 235.51 357, 32 354 M32 354 C9.38 355.89, 1.34 342.01, 0 322 M32 354 C10.72 354.77, -0.93 344.32, 0 322 M0 322 C0 263.18, -0.81 202.92, 0 32 M0 322 C-0.18 223.17, -1.42 124.92, 0 32 M0 32 C1.51 9.76, 10.31 -0.04, 32 0 M0 32 C0.75 9.2, 11.21 -1.26, 32 0" stroke="#1e1e1e" stroke-width="1" fill="none"></path></g><g transform="translate(164 35) rotate(0 214.721923828125 22.5)"><text x="0" y="0" font-family="Virgil, Segoe UI Emoji" font-size="36px" fill="#f08c00" text-anchor="start" style="white-space: pre;" direction="ltr" dominant-baseline="text-before-edge">Spring Boot Web App/Api</text></g><g stroke-linecap="round" transform="translate(89 212) rotate(0 195.99999999999997 50)"><path d="M25 0 M25 0 C129.74 1.68, 230.98 1.05, 367 0 M25 0 C148.85 0.03, 271.65 -0.34, 367 0 M367 0 C382.92 -0.88, 391.69 6.48, 392 25 M367 0 C384.59 -0.58, 391.44 7.6, 392 25 M392 25 C391.12 37.81, 391.76 48.96, 392 75 M392 25 C391.91 45.47, 391.47 65.08, 392 75 M392 75 C391.64 91.71, 382.2 99.11, 367 100 M392 75 C391.37 89.91, 385.18 99.68, 367 100 M367 100 C255.82 100.29, 143.77 100.49, 25 100 M367 100 C273.17 101.64, 179.41 101.08, 25 100 M25 100 C9.97 101.96, 0.79 89.91, 0 75 M25 100 C6.29 100.41, 1.67 93.66, 0 75 M0 75 C-1 57.82, 1.03 38.49, 0 25 M0 75 C-0.8 59.59, -0.4 42.76, 0 25 M0 25 C0.41 7.66, 9 1.12, 25 0 M0 25 C0.67 6.76, 9.25 1.82, 25 0" stroke="#f08c00" stroke-width="1" fill="none"></path></g><g transform="translate(149 235) rotate(0 145.09796142578125 22.5)"><text x="0" y="0" font-family="Virgil, Segoe UI Emoji" font-size="36px" fill="#f08c00" text-anchor="start" style="white-space: pre;" direction="ltr" dominant-baseline="text-before-edge">Spring framework</text></g><g stroke-linecap="round" transform="translate(496 220) rotate(0 139.99999999999997 47.5)"><path d="M23.75 0 M23.75 0 C107.75 1.88, 192.92 1.14, 256.25 0 M23.75 0 C114.52 -1.28, 207.58 -1.61, 256.25 0 M256.25 0 C271.24 -1.25, 279.44 7.83, 280 23.75 M256.25 0 C272.23 0.74, 279.61 8.13, 280 23.75 M280 23.75 C279.56 34.32, 280.38 42.32, 280 71.25 M280 23.75 C279.5 38.82, 279.63 51.87, 280 71.25 M280 71.25 C278.48 88.46, 272.55 94.07, 256.25 95 M280 71.25 C282.17 88.03, 274.14 93.46, 256.25 95 M256.25 95 C179.59 95.76, 101.81 95.15, 23.75 95 M256.25 95 C166.21 97.47, 76.87 96.15, 23.75 95 M23.75 95 C7.97 96.84, 0.27 85.67, 0 71.25 M23.75 95 C6.45 95.66, 1.93 85.97, 0 71.25 M0 71.25 C0.09 62.71, -1.06 50.29, 0 23.75 M0 71.25 C0.36 55.04, -0.6 39.62, 0 23.75 M0 23.75 C1.12 7.15, 8.68 1.04, 23.75 0 M0 23.75 C-0.64 6.47, 6.96 -0.89, 23.75 0" stroke="#f08c00" stroke-width="1" fill="none"></path></g><g transform="translate(520 251) rotate(0 111.8519515991211 22.5)"><text x="0" y="0" font-family="Virgil, Segoe UI Emoji" font-size="36px" fill="#f08c00" text-anchor="start" style="white-space: pre;" direction="ltr" dominant-baseline="text-before-edge">Driver JDBC</text></g><g stroke-linecap="round" transform="translate(797 145) rotate(0 122 31)"><path d="M15.5 0 M15.5 0 C92.66 1.87, 169.64 2.86, 228.5 0 M15.5 0 C83.7 0.87, 153.6 0.4, 228.5 0 M228.5 0 C239.84 -1.69, 245.22 6.49, 244 15.5 M228.5 0 C239.32 1.54, 245.08 6.15, 244 15.5 M244 15.5 C244.55 21.3, 245.36 31.12, 244 46.5 M244 15.5 C244.14 27.25, 245.24 37.27, 244 46.5 M244 46.5 C243.75 54.98, 237.21 63.15, 228.5 62 M244 46.5 C243.97 55.77, 239.68 64.23, 228.5 62 M228.5 62 C144.78 61.78, 60.72 62.81, 15.5 62 M228.5 62 C182.7 60.31, 138.55 60.6, 15.5 62 M15.5 62 C4.76 63.53, 0.47 58.7, 0 46.5 M15.5 62 C7.29 64.26, 0.4 58.9, 0 46.5 M0 46.5 C-0.41 37.29, 0.57 27.91, 0 15.5 M0 46.5 C-0.1 35.22, -0.19 25.41, 0 15.5 M0 15.5 C-1.44 3.32, 6.62 1.37, 15.5 0 M0 15.5 C-2.18 6.24, 3.03 -0.91, 15.5 0" stroke="#f08c00" stroke-width="1" fill="none"></path></g><g transform="translate(840 160) rotate(0 79.79397583007812 22.5)"><text x="0" y="0" font-family="Virgil, Segoe UI Emoji" font-size="36px" fill="#f08c00" text-anchor="start" style="white-space: pre;" direction="ltr" dominant-baseline="text-before-edge">JPA JEE</text></g><g stroke-linecap="round" transform="translate(804 216) rotate(0 153.00000000000006 56)"><path d="M28 0 M28 0 C88.97 -1.94, 150.76 0.74, 278 0 M28 0 C100.72 -2.61, 173.57 -1.77, 278 0 M278 0 C295.03 -0.95, 307.73 7.93, 306 28 M278 0 C298.57 1.78, 304.07 11.51, 306 28 M306 28 C304.68 47.7, 304.33 67.05, 306 84 M306 28 C305.62 44.91, 305.95 61.91, 306 84 M306 84 C304.89 100.94, 295.06 111.25, 278 112 M306 84 C303.75 103.87, 296.32 113.62, 278 112 M278 112 C183.01 111.64, 89.53 110.71, 28 112 M278 112 C193.96 113.2, 110.74 111.93, 28 112 M28 112 C11.27 110.18, -0.38 100.76, 0 84 M28 112 C9.17 114.18, 0.8 104.47, 0 84 M0 84 C-1.18 70.28, -0.66 60.69, 0 28 M0 84 C-0.57 70.51, 0.7 54.78, 0 28 M0 28 C-1.42 10.85, 7.51 0.32, 28 0 M0 28 C-0.34 10.03, 11.62 1.11, 28 0" stroke="#f08c00" stroke-width="1" fill="none"></path></g><g transform="translate(834 238) rotate(0 137.0699462890625 45)"><text x="0" y="0" font-family="Virgil, Segoe UI Emoji" font-size="36px" fill="#f08c00" text-anchor="start" style="white-space: pre;" direction="ltr" dominant-baseline="text-before-edge">Bean Validation</text><text x="0" y="45" font-family="Virgil, Segoe UI Emoji" font-size="36px" fill="#f08c00" text-anchor="start" style="white-space: pre;" direction="ltr" dominant-baseline="text-before-edge">JEE</text></g><g stroke-linecap="round" transform="translate(791 59) rotate(0 152.5 33)"><path d="M16.5 0 M16.5 0 C112.36 1.63, 204.52 2.05, 288.5 0 M16.5 0 C118.28 -1.24, 219.12 -2.53, 288.5 0 M288.5 0 C297.6 -0.27, 304.25 6.89, 305 16.5 M288.5 0 C299.69 1.41, 306.77 6.5, 305 16.5 M305 16.5 C305.94 28.79, 305.37 38.15, 305 49.5 M305 16.5 C305.48 29.09, 305.17 43.36, 305 49.5 M305 49.5 C305.99 60.69, 301.49 65.1, 288.5 66 M305 49.5 C306.22 59.37, 301.43 65.89, 288.5 66 M288.5 66 C219.41 66.08, 146.74 67.64, 16.5 66 M288.5 66 C193.04 68.01, 96.77 67.48, 16.5 66 M16.5 66 C5.42 64.51, 1.22 60.55, 0 49.5 M16.5 66 C7.33 68.05, 1.96 58.86, 0 49.5 M0 49.5 C-1.98 39.21, 1.32 32.9, 0 16.5 M0 49.5 C-0.05 38.51, 0.5 27.02, 0 16.5 M0 16.5 C1.27 3.8, 6.32 0.71, 16.5 0 M0 16.5 C-0.09 4.41, 6.51 1.89, 16.5 0" stroke="#f08c00" stroke-width="1" fill="none"></path></g><g transform="translate(814 74) rotate(0 107.36995697021484 22.5)"><text x="0" y="0" font-family="Virgil, Segoe UI Emoji" font-size="36px" fill="#f08c00" text-anchor="start" style="white-space: pre;" direction="ltr" dominant-baseline="text-before-edge">Servlet JEE</text></g><g stroke-linecap="round" transform="translate(498 116) rotate(0 130.5 37)"><path d="M18.5 0 M18.5 0 C96.69 -2.45, 173.72 -2.66, 242.5 0 M18.5 0 C65.4 -1.16, 110.73 -1.11, 242.5 0 M242.5 0 C255.55 -0.01, 261.84 6.93, 261 18.5 M242.5 0 C253.98 -0.64, 261 6.55, 261 18.5 M261 18.5 C260.9 32.47, 259.83 46.1, 261 55.5 M261 18.5 C260.32 27.49, 261.35 34.16, 261 55.5 M261 55.5 C261.17 69.1, 252.91 72.1, 242.5 74 M261 55.5 C258.8 66.43, 254.73 72.08, 242.5 74 M242.5 74 C178.2 76.95, 112.51 75.86, 18.5 74 M242.5 74 C180.27 73.25, 116.05 74.32, 18.5 74 M18.5 74 C5.12 72.16, -1.82 69.81, 0 55.5 M18.5 74 C4.76 73.51, 0.84 69.11, 0 55.5 M0 55.5 C1.34 42.04, -0.53 33.89, 0 18.5 M0 55.5 C0.16 41.44, -0.46 25.87, 0 18.5 M0 18.5 C0.21 4.45, 5.69 1.93, 18.5 0 M0 18.5 C-0.96 6.25, 8.37 0.54, 18.5 0" stroke="#f08c00" stroke-width="1" fill="none"></path></g><g transform="translate(541 141) rotate(0 69.53398132324219 22.5)"><text x="0" y="0" font-family="Virgil, Segoe UI Emoji" font-size="36px" fill="#f08c00" text-anchor="start" style="white-space: pre;" direction="ltr" dominant-baseline="text-before-edge">Swagger</text></g><g stroke-linecap="round" transform="translate(93 106) rotate(0 183 44)"><path d="M22 0 M22 0 C145.25 -0.64, 268.3 -0.69, 344 0 M22 0 C94.51 -2.36, 167.48 -1.31, 344 0 M344 0 C357.02 -0.51, 366.59 8.29, 366 22 M344 0 C358.59 -1.92, 365.69 5.25, 366 22 M366 22 C363.96 33.49, 365.36 47.92, 366 66 M366 22 C365.32 35.4, 366.49 48.25, 366 66 M366 66 C367.6 79.69, 358.98 86.88, 344 88 M366 66 C365.47 80.86, 357.44 89.78, 344 88 M344 88 C237.03 87.35, 133.68 89.2, 22 88 M344 88 C261.1 86.12, 177.62 86.38, 22 88 M22 88 C6.53 87.71, -0.04 80.58, 0 66 M22 88 C6.17 85.92, 0.96 82.63, 0 66 M0 66 C-0.98 52.93, 2.27 39.73, 0 22 M0 66 C-0.91 53.56, 0.21 40.68, 0 22 M0 22 C-1.17 5.7, 5.4 1.16, 22 0 M0 22 C-0.15 8, 7.62 -1.42, 22 0" stroke="#2f9e44" stroke-width="1" fill="none"></path></g><g transform="translate(115 129) rotate(0 67.04998779296875 22.5)"><text x="0" y="0" font-family="Virgil, Segoe UI Emoji" font-size="36px" fill="#2f9e44" text-anchor="start" style="white-space: pre;" direction="ltr" dominant-baseline="text-before-edge">Tomcat</text></g><g stroke-linecap="round" transform="translate(22 129) rotate(0 36 18)"><path d="M9 0 M9 0 C31.67 0.45, 50.84 0.79, 63 0 M9 0 C26.8 -0.65, 46.81 0.25, 63 0 M63 0 C69.58 0.25, 70.77 1.95, 72 9 M63 0 C69.33 -1.62, 69.81 4.93, 72 9 M72 9 C72.3 16.61, 73.65 23.09, 72 27 M72 9 C71.75 13.95, 72.12 18.72, 72 27 M72 27 C71.25 31.08, 70.47 37.44, 63 36 M72 27 C70.2 32.85, 67.97 37.09, 63 36 M63 36 C46.32 37.48, 28.29 38.26, 9 36 M63 36 C45.13 36.3, 26.37 36.73, 9 36 M9 36 C1.13 37.96, 1.56 31.79, 0 27 M9 36 C2.49 35.34, -0.53 34.24, 0 27 M0 27 C-0.94 21.19, 1.54 12.36, 0 9 M0 27 C-0.1 23.65, 0.31 18.45, 0 9 M0 9 C-0.49 3.98, 1.03 1.71, 9 0 M0 9 C0.21 5.02, 3.32 -1.66, 9 0" stroke="#1971c2" stroke-width="1" fill="none"></path></g><g transform="translate(28.940017700195312 134.5) rotate(0 29.059982299804688 12.5)"><text x="29.059982299804688" y="0" font-family="Virgil, Segoe UI Emoji" font-size="20px" fill="#1971c2" text-anchor="middle" style="white-space: pre;" direction="ltr" dominant-baseline="text-before-edge">8080</text></g><g stroke-linecap="round" transform="translate(78 460) rotate(0 528.5 118)"><path d="M32 0 M32 0 C394.04 -0.02, 754.86 0.29, 1025 0 M32 0 C274.91 -3.38, 518.6 -3.99, 1025 0 M1025 0 C1044.67 0.85, 1057.09 9.97, 1057 32 M1025 0 C1048 -2.16, 1054.79 11.4, 1057 32 M1057 32 C1055.72 78.26, 1055.98 124.85, 1057 204 M1057 32 C1057.94 78.13, 1058.46 123.89, 1057 204 M1057 204 C1057.23 225.5, 1045.39 236.19, 1025 236 M1057 204 C1056.67 225.02, 1045.98 234.13, 1025 236 M1025 236 C750.71 238.4, 475.42 237.79, 32 236 M1025 236 C728.33 233.55, 432.39 233.81, 32 236 M32 236 C10.44 237.87, 1.52 226.19, 0 204 M32 236 C12.61 233.92, 0.03 225.65, 0 204 M0 204 C1.46 162.76, 0.7 121.8, 0 32 M0 204 C1.97 138, 1.25 73.47, 0 32 M0 32 C-0.6 12.65, 12.63 0.66, 32 0 M0 32 C0.81 8.75, 10.75 0.97, 32 0" stroke="#2f9e44" stroke-width="1" fill="none"></path></g><g transform="translate(110 583) rotate(0 67.04998779296875 22.5)"><text x="0" y="0" font-family="Virgil, Segoe UI Emoji" font-size="36px" fill="#2f9e44" text-anchor="start" style="white-space: pre;" direction="ltr" dominant-baseline="text-before-edge">Tomcat</text></g><g stroke-linecap="round" transform="translate(328.5 581) rotate(0 152.5 33)"><path d="M16.5 0 M16.5 0 C102.59 1.38, 190.26 0.1, 288.5 0 M16.5 0 C84.97 -0.35, 155.16 -1.22, 288.5 0 M288.5 0 C297.75 0.41, 306.3 3.73, 305 16.5 M288.5 0 C297.64 1.5, 306.7 5.17, 305 16.5 M305 16.5 C303.1 31.06, 304.48 42.16, 305 49.5 M305 16.5 C305.94 28.5, 305.89 38.67, 305 49.5 M305 49.5 C305.98 60.34, 299.87 67.19, 288.5 66 M305 49.5 C306.05 62.41, 299.27 66.62, 288.5 66 M288.5 66 C215.87 66.4, 145.47 68.56, 16.5 66 M288.5 66 C229.91 63.57, 169.82 63.58, 16.5 66 M16.5 66 C7.15 67.26, 0.02 62.22, 0 49.5 M16.5 66 C3.95 64.43, 0.56 61.6, 0 49.5 M0 49.5 C0.34 39.57, -0.77 26.21, 0 16.5 M0 49.5 C0.54 37.57, 1.15 25.8, 0 16.5 M0 16.5 C1.12 5.36, 7.36 -0.61, 16.5 0 M0 16.5 C-2.16 4.38, 6.87 -0.22, 16.5 0" stroke="#f08c00" stroke-width="1" fill="none"></path></g><g transform="translate(351.5 596) rotate(0 107.36995697021484 22.5)"><text x="0" y="0" font-family="Virgil, Segoe UI Emoji" font-size="36px" fill="#f08c00" text-anchor="start" style="white-space: pre;" direction="ltr" dominant-baseline="text-before-edge">Servlet JEE</text></g><g stroke-linecap="round" transform="translate(10 569) rotate(0 36 18)"><path d="M9 0 M9 0 C20.38 -1.73, 36.28 1.55, 63 0 M9 0 C27.41 0.92, 46.15 0.38, 63 0 M63 0 C70.47 -1.11, 72.17 3.82, 72 9 M63 0 C70.39 -2.26, 70.58 4.07, 72 9 M72 9 C70.74 16.26, 71.69 20.09, 72 27 M72 9 C71.14 14.4, 71.03 20.33, 72 27 M72 27 C73.51 34.41, 67.21 35.95, 63 36 M72 27 C71.07 31.84, 71.3 34.78, 63 36 M63 36 C41.26 37.29, 19.33 34.74, 9 36 M63 36 C41.87 37.07, 22.72 36.32, 9 36 M9 36 C4.12 36.09, -0.35 31.33, 0 27 M9 36 C1.21 36.83, 1.12 33.13, 0 27 M0 27 C-1.81 23.07, -1.19 19.51, 0 9 M0 27 C-0.97 23.09, -0.88 17.88, 0 9 M0 9 C1.64 3.51, 2.26 0.29, 9 0 M0 9 C1.54 1.95, 5.16 -1.53, 9 0" stroke="#1971c2" stroke-width="1" fill="none"></path></g><g transform="translate(16.940017700195312 574.5) rotate(0 29.059982299804688 12.5)"><text x="29.059982299804688" y="0" font-family="Virgil, Segoe UI Emoji" font-size="20px" fill="#1971c2" text-anchor="middle" style="white-space: pre;" direction="ltr" dominant-baseline="text-before-edge">8080</text></g><g stroke-linecap="round" transform="translate(647 479) rotate(0 72.5 80)"><path d="M91.25 20.25 M91.25 20.25 C99.68 32.08, 111.07 39.57, 126.75 60.75 M91.25 20.25 C98.53 28.59, 106.35 36.84, 126.75 60.75 M126.75 60.75 C146.43 81.2, 144.15 81.72, 126.75 101.25 M126.75 60.75 C146.5 82.86, 144.2 79.1, 126.75 101.25 M126.75 101.25 C116.6 111.43, 108.07 119.75, 91.25 139.75 M126.75 101.25 C114.03 116.21, 101.88 130.05, 91.25 139.75 M91.25 139.75 C74.93 160.36, 71.67 160.62, 54.75 139.75 M91.25 139.75 C73.03 159.61, 74.05 160.96, 54.75 139.75 M54.75 139.75 C46.49 131.43, 40.7 122.79, 18.25 101.25 M54.75 139.75 C43.38 126.56, 30.76 115.76, 18.25 101.25 M18.25 101.25 C1.34 82.98, 0.51 82.3, 18.25 60.75 M18.25 101.25 C-0.12 81.99, 0.54 79.1, 18.25 60.75 M18.25 60.75 C25.78 49.61, 37.43 42.01, 54.75 20.25 M18.25 60.75 C28.33 49.56, 39.57 36.84, 54.75 20.25 M54.75 20.25 C73.02 -0.45, 74.58 -1.12, 91.25 20.25 M54.75 20.25 C73.64 -0.29, 73.65 -1.58, 91.25 20.25" stroke="#e03131" stroke-width="1" fill="none"></path></g><g transform="translate(692.8140182495117 524) rotate(0 26.93598175048828 35)"><text x="26.93598175048828" y="0" font-family="Virgil, Segoe UI Emoji" font-size="28px" fill="#e03131" text-anchor="middle" style="white-space: pre;" direction="ltr" dominant-baseline="text-before-edge">web</text><text x="26.93598175048828" y="35" font-family="Virgil, Segoe UI Emoji" font-size="28px" fill="#e03131" text-anchor="middle" style="white-space: pre;" direction="ltr" dominant-baseline="text-before-edge">app1</text></g><g stroke-linecap="round" transform="translate(814.5 461) rotate(0 75 115)"><path d="M95 29 M95 29 C108.41 48.12, 117.57 67.64, 131 87 M95 29 C108.45 50.51, 122.06 72.93, 131 87 M131 87 C151.74 117.55, 148.99 116.8, 131 145 M131 87 C149.75 115.44, 149.14 115.05, 131 145 M131 145 C119.93 159.16, 111.74 173.26, 95 201 M131 145 C121.14 161.72, 109.55 178.17, 95 201 M95 201 C76.89 231.41, 75.18 228.78, 57 201 M95 201 C78.02 230.8, 76.9 228.88, 57 201 M57 201 C45.73 186.45, 36.47 172.41, 19 145 M57 201 C48.39 188.18, 38.8 172.85, 19 145 M19 145 C0.39 116.42, -0.02 114.13, 19 87 M19 145 C0.61 116.02, 2.05 114.59, 19 87 M19 87 C29.88 72.17, 42.47 54.22, 57 29 M19 87 C34.6 65.77, 47.68 42.78, 57 29 M57 29 C77.55 1.37, 76.76 1.75, 95 29 M57 29 C75.68 1.48, 74.03 2.25, 95 29" stroke="#e03131" stroke-width="1" fill="none"></path></g><g transform="translate(866.2040100097656 523.5) rotate(0 23.295989990234375 52.5)"><text x="23.295989990234375" y="0" font-family="Virgil, Segoe UI Emoji" font-size="28px" fill="#e03131" text-anchor="middle" style="white-space: pre;" direction="ltr" dominant-baseline="text-before-edge">web</text><text x="23.295989990234375" y="35" font-family="Virgil, Segoe UI Emoji" font-size="28px" fill="#e03131" text-anchor="middle" style="white-space: pre;" direction="ltr" dominant-baseline="text-before-edge">app</text><text x="23.295989990234375" y="70" font-family="Virgil, Segoe UI Emoji" font-size="28px" fill="#e03131" text-anchor="middle" style="white-space: pre;" direction="ltr" dominant-baseline="text-before-edge">2</text></g><g stroke-linecap="round" transform="translate(78.5 738) rotate(0 528.5 143.5)"><path d="M32 0 M32 0 C423.58 -0.42, 813.62 0.48, 1025 0 M32 0 C404.85 -0.92, 777.41 -0.94, 1025 0 M1025 0 C1048.11 0.24, 1058.53 10.91, 1057 32 M1025 0 C1046.43 -1.06, 1057.94 9.78, 1057 32 M1057 32 C1058.04 113.08, 1057.2 191.38, 1057 255 M1057 32 C1058.44 81.77, 1058.17 131.84, 1057 255 M1057 255 C1057.58 275.71, 1045.79 286.28, 1025 287 M1057 255 C1055 278.51, 1047.45 286.07, 1025 287 M1025 287 C781.99 287.94, 539.61 288.53, 32 287 M1025 287 C825.43 284.01, 625.9 283.75, 32 287 M32 287 C12.26 286.96, 0.76 278.08, 0 255 M32 287 C12.49 286.44, 1.26 277.86, 0 255 M0 255 C-0.32 199.27, -0.22 144.5, 0 32 M0 255 C2.42 206.65, 1.99 159.18, 0 32 M0 32 C-0.63 11.21, 11.42 0.73, 32 0 M0 32 C1.13 12.73, 11.25 0.49, 32 0" stroke="#2f9e44" stroke-width="1" fill="none"></path></g><g transform="translate(110.5 861) rotate(0 54.26995849609375 22.5)"><text x="0" y="0" font-family="Virgil, Segoe UI Emoji" font-size="36px" fill="#2f9e44" text-anchor="start" style="white-space: pre;" direction="ltr" dominant-baseline="text-before-edge">Wildfly</text></g><g stroke-linecap="round" transform="translate(326 938) rotate(0 152.5 33)"><path d="M16.5 0 M16.5 0 C73.75 0.12, 129.02 0.73, 288.5 0 M16.5 0 C97.49 0.27, 177.69 0.27, 288.5 0 M288.5 0 C299.58 -0.92, 305.82 4.73, 305 16.5 M288.5 0 C300.81 -0.63, 305.43 7.59, 305 16.5 M305 16.5 C303.63 30.05, 306.39 43.72, 305 49.5 M305 16.5 C305.46 24.77, 304.9 33.31, 305 49.5 M305 49.5 C303.26 62.39, 300.47 65.19, 288.5 66 M305 49.5 C303.72 59.49, 300.12 64.46, 288.5 66 M288.5 66 C209.83 67.9, 133.07 67.07, 16.5 66 M288.5 66 C207.07 64.6, 124.69 65.3, 16.5 66 M16.5 66 C7.09 65.51, 1.09 61.83, 0 49.5 M16.5 66 C4.23 67.02, 1.37 61.22, 0 49.5 M0 49.5 C-1.85 39.89, 0.06 35.45, 0 16.5 M0 49.5 C-0.38 42.53, 0.32 35.38, 0 16.5 M0 16.5 C0.98 7.29, 6 0.42, 16.5 0 M0 16.5 C-0.31 3.94, 6.57 1.04, 16.5 0" stroke="#f08c00" stroke-width="1" fill="none"></path></g><g transform="translate(349 953) rotate(0 107.36995697021484 22.5)"><text x="0" y="0" font-family="Virgil, Segoe UI Emoji" font-size="36px" fill="#f08c00" text-anchor="start" style="white-space: pre;" direction="ltr" dominant-baseline="text-before-edge">Servlet JEE</text></g><g stroke-linecap="round" transform="translate(10.5 847) rotate(0 36 18)"><path d="M9 0 M9 0 C26.94 1.1, 44.9 1.39, 63 0 M9 0 C25.89 -0.53, 43.11 -0.45, 63 0 M63 0 C70.14 -0.55, 72.38 4.82, 72 9 M63 0 C71.01 0.98, 72.33 1.27, 72 9 M72 9 C71.4 16.01, 71.3 21.69, 72 27 M72 9 C71.17 14.69, 72.39 18.31, 72 27 M72 27 C70.88 32.12, 69.54 34.66, 63 36 M72 27 C71.62 31.72, 70.32 33.72, 63 36 M63 36 C44.45 35.75, 24.54 37.55, 9 36 M63 36 C47.71 36.23, 31.37 37.13, 9 36 M9 36 C1.9 36.89, 1.19 33.62, 0 27 M9 36 C1.47 36.85, -1.76 31.02, 0 27 M0 27 C-1.47 23.65, -1.07 19.06, 0 9 M0 27 C0.37 21.92, 0.16 15.41, 0 9 M0 9 C-0.27 1.65, 3.93 0.9, 9 0 M0 9 C0.23 4.26, 4.57 -0.41, 9 0" stroke="#1971c2" stroke-width="1" fill="none"></path></g><g transform="translate(17.440017700195312 852.5) rotate(0 29.059982299804688 12.5)"><text x="29.059982299804688" y="0" font-family="Virgil, Segoe UI Emoji" font-size="20px" fill="#1971c2" text-anchor="middle" style="white-space: pre;" direction="ltr" dominant-baseline="text-before-edge">8080</text></g><g stroke-linecap="round" transform="translate(647.5 757) rotate(0 72.5 80)"><path d="M91.25 20.25 M91.25 20.25 C104.75 36.64, 118.05 50.35, 126.75 60.75 M91.25 20.25 C101 30.4, 109.63 41.87, 126.75 60.75 M126.75 60.75 C146.75 81.85, 145.28 79.49, 126.75 101.25 M126.75 60.75 C145.87 82.44, 146.89 80.08, 126.75 101.25 M126.75 101.25 C113.47 114.34, 100.91 126.67, 91.25 139.75 M126.75 101.25 C112.37 115.86, 99.19 130.82, 91.25 139.75 M91.25 139.75 C72.67 158.89, 74.14 158.02, 54.75 139.75 M91.25 139.75 C74.01 158.27, 72.78 160.04, 54.75 139.75 M54.75 139.75 C44.37 129.63, 35.56 119.29, 18.25 101.25 M54.75 139.75 C43.92 129.82, 35.01 119.07, 18.25 101.25 M18.25 101.25 C-1.33 81.74, -1.53 79.27, 18.25 60.75 M18.25 101.25 C-2.19 81.21, 1.58 79.15, 18.25 60.75 M18.25 60.75 C30.67 48.71, 42.49 36.03, 54.75 20.25 M18.25 60.75 C32.24 44.21, 47.06 29.56, 54.75 20.25 M54.75 20.25 C73.2 1.09, 74.37 -0.36, 91.25 20.25 M54.75 20.25 C72.98 -1.63, 74.36 -1.63, 91.25 20.25" stroke="#e03131" stroke-width="1" fill="none"></path></g><g transform="translate(693.3140182495117 802) rotate(0 26.93598175048828 35)"><text x="26.93598175048828" y="0" font-family="Virgil, Segoe UI Emoji" font-size="28px" fill="#e03131" text-anchor="middle" style="white-space: pre;" direction="ltr" dominant-baseline="text-before-edge">web</text><text x="26.93598175048828" y="35" font-family="Virgil, Segoe UI Emoji" font-size="28px" fill="#e03131" text-anchor="middle" style="white-space: pre;" direction="ltr" dominant-baseline="text-before-edge">app1</text></g><g stroke-linecap="round" transform="translate(815 739) rotate(0 75 115)"><path d="M95 29 M95 29 C107.71 51.65, 121.42 73.82, 131 87 M95 29 C105.79 44.9, 114.86 59.52, 131 87 M131 87 C150.76 117.25, 151.64 115.2, 131 145 M131 87 C151.18 114.96, 150.67 115.28, 131 145 M131 145 C122.87 160.94, 110.34 174.13, 95 201 M131 145 C121.77 158.54, 113.28 172.45, 95 201 M95 201 C76.88 228.49, 75.81 230.03, 57 201 M95 201 C75.77 228.5, 77.84 229.95, 57 201 M57 201 C43.19 183.48, 32.17 162.36, 19 145 M57 201 C42.92 182.2, 29.73 161.68, 19 145 M19 145 C-1.91 116.19, 1.37 114.39, 19 87 M19 145 C0.43 114.65, -0.72 116.63, 19 87 M19 87 C33.41 67.73, 44.87 47.37, 57 29 M19 87 C27.66 73.9, 37.08 59.69, 57 29 M57 29 C75.98 -1.42, 77.19 -1.42, 95 29 M57 29 C75.67 -2.26, 78.05 -2.16, 95 29" stroke="#e03131" stroke-width="1" fill="none"></path></g><g transform="translate(866.7040100097656 801.5) rotate(0 23.295989990234375 52.5)"><text x="23.295989990234375" y="0" font-family="Virgil, Segoe UI Emoji" font-size="28px" fill="#e03131" text-anchor="middle" style="white-space: pre;" direction="ltr" dominant-baseline="text-before-edge">web</text><text x="23.295989990234375" y="35" font-family="Virgil, Segoe UI Emoji" font-size="28px" fill="#e03131" text-anchor="middle" style="white-space: pre;" direction="ltr" dominant-baseline="text-before-edge">app</text><text x="23.295989990234375" y="70" font-family="Virgil, Segoe UI Emoji" font-size="28px" fill="#e03131" text-anchor="middle" style="white-space: pre;" direction="ltr" dominant-baseline="text-before-edge">2</text></g><g stroke-linecap="round" transform="translate(317.5 753.5) rotate(0 122.00000000000001 31)"><path d="M15.5 0 M15.5 0 C73.34 1.31, 134.58 -0.6, 228.5 0 M15.5 0 C92.74 -0.33, 168.28 -0.91, 228.5 0 M228.5 0 C238.22 0.31, 244.08 5.63, 244 15.5 M228.5 0 C237.33 1.59, 242.4 3.57, 244 15.5 M244 15.5 C243.62 21.86, 245.44 28.54, 244 46.5 M244 15.5 C245.04 28.22, 244.3 38.29, 244 46.5 M244 46.5 C242.18 57.04, 239.86 61.01, 228.5 62 M244 46.5 C246.05 56.67, 239.96 60.34, 228.5 62 M228.5 62 C142.54 63.14, 58.35 62.14, 15.5 62 M228.5 62 C183.47 62.21, 138.09 63.29, 15.5 62 M15.5 62 C5.86 63.02, 0.53 58.76, 0 46.5 M15.5 62 C4.68 63.52, -2.24 58.81, 0 46.5 M0 46.5 C-1.84 36.59, 1.35 25.05, 0 15.5 M0 46.5 C0.38 34.35, -0.25 22.37, 0 15.5 M0 15.5 C0.26 6.62, 6.29 -1.1, 15.5 0 M0 15.5 C2.26 4.3, 4.33 0.21, 15.5 0" stroke="#f08c00" stroke-width="1" fill="none"></path></g><g transform="translate(360.5 768.5) rotate(0 79.79397583007812 22.5)"><text x="0" y="0" font-family="Virgil, Segoe UI Emoji" font-size="36px" fill="#f08c00" text-anchor="start" style="white-space: pre;" direction="ltr" dominant-baseline="text-before-edge">JPA JEE</text></g><g stroke-linecap="round" transform="translate(324.5 824.5) rotate(0 153.00000000000006 56)"><path d="M28 0 M28 0 C118.47 2.63, 207.23 2.33, 278 0 M28 0 C100.52 1.65, 173.58 1.71, 278 0 M278 0 C295.36 1.38, 304.61 7.95, 306 28 M278 0 C294.77 0.9, 304.48 8.76, 306 28 M306 28 C308.03 44.02, 307.16 61.49, 306 84 M306 28 C305.23 49.65, 306.65 70.59, 306 84 M306 84 C307.79 102.52, 297.64 110.56, 278 112 M306 84 C308.25 101.88, 296.66 110.43, 278 112 M278 112 C185.22 113.72, 95.76 112.21, 28 112 M278 112 C211.48 114.26, 144.61 114.64, 28 112 M28 112 C8.91 113.32, -1.95 104.39, 0 84 M28 112 C10.13 111.25, -0.2 100.43, 0 84 M0 84 C1.48 67.71, -2.18 49.15, 0 28 M0 84 C0.11 67.99, 0.54 49.98, 0 28 M0 28 C1.97 8.58, 8.61 0.19, 28 0 M0 28 C1.99 9.78, 8.54 -0.61, 28 0" stroke="#f08c00" stroke-width="1" fill="none"></path></g><g transform="translate(354.5 846.5) rotate(0 137.0699462890625 45)"><text x="0" y="0" font-family="Virgil, Segoe UI Emoji" font-size="36px" fill="#f08c00" text-anchor="start" style="white-space: pre;" direction="ltr" dominant-baseline="text-before-edge">Bean Validation</text><text x="0" y="45" font-family="Virgil, Segoe UI Emoji" font-size="36px" fill="#f08c00" text-anchor="start" style="white-space: pre;" direction="ltr" dominant-baseline="text-before-edge">JEE</text></g><g stroke-linecap="round" transform="translate(1242 507) rotate(0 153 56)"><path d="M28 0 M28 0 C107.34 -1.1, 188.21 -0.72, 278 0 M28 0 C123.87 -1.3, 219.69 -2.56, 278 0 M278 0 C296.36 1.23, 306.9 8.43, 306 28 M278 0 C295.58 2.05, 303.73 11.11, 306 28 M306 28 C305.74 48.39, 306.33 71.65, 306 84 M306 28 C305.78 46.42, 305.86 64.35, 306 84 M306 84 C306.71 103.76, 295.72 111.91, 278 112 M306 84 C308.3 102.92, 298.31 113.91, 278 112 M278 112 C193.75 113.07, 111.71 110.93, 28 112 M278 112 C179.12 112.86, 80.46 112.45, 28 112 M28 112 C11.32 113.84, -1.31 101.02, 0 84 M28 112 C10.01 110.37, -2.16 102.67, 0 84 M0 84 C1.86 68.99, 2.11 56.84, 0 28 M0 84 C0.46 63.12, -0.4 43.17, 0 28 M0 28 C-1.51 8.45, 9.18 -0.82, 28 0 M0 28 C-2.2 8.8, 7.94 -0.07, 28 0" stroke="#f08c00" stroke-width="1" fill="none"></path></g><g transform="translate(1272 529) rotate(0 137.0699462890625 45)"><text x="0" y="0" font-family="Virgil, Segoe UI Emoji" font-size="36px" fill="#f08c00" text-anchor="start" style="white-space: pre;" direction="ltr" dominant-baseline="text-before-edge">Bean Validation</text><text x="0" y="45" font-family="Virgil, Segoe UI Emoji" font-size="36px" fill="#f08c00" text-anchor="start" style="white-space: pre;" direction="ltr" dominant-baseline="text-before-edge">JEE</text></g><g stroke-linecap="round"><g transform="translate(1246 555) rotate(0 -156.11152919933198 6.749579273536824)"><path d="M-0.28 -0.72 C-52.37 1.84, -260.77 11.85, -313.03 14.22 M1.78 1.51 C-50.43 3.78, -261.8 10.05, -314 12.22" stroke="#1971c2" stroke-width="1" fill="none"></path></g><g transform="translate(1246 555) rotate(0 -156.11152919933198 6.749579273536824)"><path d="M-287.39 0.92 C-293.13 2.36, -301.55 6.49, -313.55 12.52 M-285.64 0.5 C-293.14 5.1, -301.99 6.91, -314.33 11.5" stroke="#1971c2" stroke-width="1" fill="none"></path></g><g transform="translate(1246 555) rotate(0 -156.11152919933198 6.749579273536824)"><path d="M-286.68 21.43 C-292.4 17.55, -301 16.37, -313.55 12.52 M-284.93 21.01 C-292.73 19.92, -301.78 16.03, -314.33 11.5" stroke="#1971c2" stroke-width="1" fill="none"></path></g></g><mask></mask><g stroke-linecap="round"><g transform="translate(1238 550) rotate(0 -398.7169295485318 -72.89368384877662)"><path d="M-0.91 1.18 C-37.99 -23.36, -90.47 -143.42, -223.26 -146.88 C-356.06 -150.35, -701.95 -40.8, -797.66 -19.63 M0.81 0.75 C-36.37 -23.6, -91.18 -141.53, -224.35 -145.29 C-357.53 -149.04, -702.8 -42.88, -798.25 -21.78" stroke="#1971c2" stroke-width="1" fill="none"></path></g><g transform="translate(1238 550) rotate(0 -398.7169295485318 -72.89368384877662)"><path d="M-771.59 -39.26 C-779.05 -34.47, -784.38 -30.26, -798.01 -21.57 M-773.39 -37.97 C-779.87 -35.42, -785.92 -30.69, -798.54 -22.42" stroke="#1971c2" stroke-width="1" fill="none"></path></g><g transform="translate(1238 550) rotate(0 -398.7169295485318 -72.89368384877662)"><path d="M-766.42 -19.4 C-775.14 -19.27, -781.66 -19.67, -798.01 -21.57 M-768.22 -18.11 C-776.05 -20.34, -783.35 -20.39, -798.54 -22.42" stroke="#1971c2" stroke-width="1" fill="none"></path></g></g><mask></mask><g transform="translate(1155 518) rotate(0 21.64398956298828 17.5)"><text x="0" y="0" font-family="Virgil, Segoe UI Emoji" font-size="28px" fill="#1971c2" text-anchor="start" style="white-space: pre;" direction="ltr" dominant-baseline="text-before-edge">xor</text></g></svg>