<svg version="1.1" xmlns="http://www.w3.org/2000/svg" viewBox="0 0 1698.0083974607123 795" width="1698.0083974607123" height="795">
  <!-- svg-source:excalidraw -->
  
  <defs>
    <style class="style-fonts">
      @font-face {
        font-family: "Virgil";
        src: url("https://excalidraw.com/Virgil.woff2");
      }
      @font-face {
        font-family: "Cascadia";
        src: url("https://excalidraw.com/Cascadia.woff2");
      }
    </style>
    
  </defs>
  <rect x="0" y="0" width="1698.0083974607123" height="795" fill="#ffffff"></rect><g stroke-linecap="round" transform="translate(1187.4417081052438 120) rotate(0 147 259)"><path d="M32 0 M32 0 C96.25 0.39, 159.24 -0.61, 262 0 M32 0 C91.19 -0.86, 150.33 -1.19, 262 0 M262 0 C281.38 0.08, 295.76 10.49, 294 32 M262 0 C281.13 0.69, 292.99 11.6, 294 32 M294 32 C295.13 186.03, 294.35 339.67, 294 486 M294 32 C292.02 202.7, 291.91 372.23, 294 486 M294 486 C294 508.31, 281.7 517.29, 262 518 M294 486 C295.3 506.35, 282.64 518.56, 262 518 M262 518 C197.53 516.4, 134.39 517.17, 32 518 M262 518 C203.94 518.57, 144.61 517.75, 32 518 M32 518 C9.52 518.43, -1.49 505.49, 0 486 M32 518 C9.03 518.64, 1.15 505.33, 0 486 M0 486 C-1.18 340.51, -1.19 194.84, 0 32 M0 486 C-1.89 369.44, -1.49 253.59, 0 32 M0 32 C-1.49 8.84, 11.23 -0.03, 32 0 M0 32 C-0.87 9.74, 11.98 0.43, 32 0" stroke="#1e1e1e" stroke-width="1" fill="none"></path></g><g transform="translate(1238.4417081052438 177) rotate(0 79.98196411132812 52.5)"><text x="0" y="0" font-family="Virgil, Segoe UI Emoji" font-size="28px" fill="#f08c00" text-anchor="start" style="white-space: pre;" direction="ltr" dominant-baseline="text-before-edge">Relational</text><text x="0" y="35" font-family="Virgil, Segoe UI Emoji" font-size="28px" fill="#f08c00" text-anchor="start" style="white-space: pre;" direction="ltr" dominant-baseline="text-before-edge">Database</text><text x="0" y="70" font-family="Virgil, Segoe UI Emoji" font-size="28px" fill="#f08c00" text-anchor="start" style="white-space: pre;" direction="ltr" dominant-baseline="text-before-edge">PostgreSQL</text></g><g stroke-linecap="round" transform="translate(373.4417081052437 161) rotate(0 294 192.5)"><path d="M32 0 M32 0 C150.42 1.89, 267.69 1.65, 556 0 M32 0 C209.95 0.57, 387.83 0.53, 556 0 M556 0 C578.78 -1.1, 586.66 9.72, 588 32 M556 0 C577.69 1.24, 586.29 8.56, 588 32 M588 32 C587.41 138.11, 588.23 243.3, 588 353 M588 32 C590.61 104.28, 590.48 175.85, 588 353 M588 353 C586.99 376.05, 576.17 385.44, 556 385 M588 353 C588.83 375.09, 578.39 387.25, 556 385 M556 385 C442.92 384, 330.07 382.8, 32 385 M556 385 C354.51 384.33, 152.37 384.83, 32 385 M32 385 C10.55 386.89, -0.91 372.58, 0 353 M32 385 C9.03 384.91, -1.64 372.16, 0 353 M0 353 C-2.34 267.68, -1.23 182.03, 0 32 M0 353 C1.11 261.37, 1.56 169.17, 0 32 M0 32 C-0.11 11.4, 12.47 -0.58, 32 0 M0 32 C-1.36 9.01, 11.71 0.08, 32 0" stroke="#1e1e1e" stroke-width="1" fill="none"></path></g><g transform="translate(455.4417081052437 178) rotate(0 156.86993408203125 45)"><text x="0" y="0" font-family="Virgil, Segoe UI Emoji" font-size="36px" fill="#1e1e1e" text-anchor="start" style="white-space: pre;" direction="ltr" dominant-baseline="text-before-edge">Movie API (Java)</text><text x="0" y="45" font-family="Virgil, Segoe UI Emoji" font-size="36px" fill="#1e1e1e" text-anchor="start" style="white-space: pre;" direction="ltr" dominant-baseline="text-before-edge">file: movieapi.jar</text></g><g stroke-linecap="round" transform="translate(390.4417081052437 393) rotate(0 172.5 54)"><path d="M27 0 M27 0 C106.59 2.2, 189.5 1.94, 318 0 M27 0 C85.87 -1.22, 144.02 -1.46, 318 0 M318 0 C336.38 -0.97, 346.82 8.51, 345 27 M318 0 C335.51 0.46, 343.84 10.32, 345 27 M345 27 C346.53 47.89, 346.61 69.6, 345 81 M345 27 C344.83 47.58, 345.2 66.88, 345 81 M345 81 C345.56 97.28, 336.23 107.17, 318 108 M345 81 C344.76 97.09, 336.34 106.3, 318 108 M318 108 C221.4 109.1, 123.25 110.06, 27 108 M318 108 C233.48 105.84, 148.39 106.51, 27 108 M27 108 C9.6 107.18, -0.72 99.12, 0 81 M27 108 C6.81 108.27, 1.12 100.53, 0 81 M0 81 C-0.54 62.78, 2.11 41.29, 0 27 M0 81 C0.25 65.08, 0.29 49.79, 0 27 M0 27 C-1.04 9.29, 10.92 1.68, 27 0 M0 27 C-1.19 6.8, 6.8 0.24, 27 0" stroke="#1e1e1e" stroke-width="1" fill="none"></path></g><g transform="translate(418.4417081052437 418) rotate(0 88.18197631835938 22.5)"><text x="0" y="0" font-family="Virgil, Segoe UI Emoji" font-size="36px" fill="#1e1e1e" text-anchor="start" style="white-space: pre;" direction="ltr" dominant-baseline="text-before-edge">Springboot</text></g><g stroke-linecap="round" transform="translate(379.4417081052437 569) rotate(0 292.5 54)"><path d="M27 0 M27 0 C233.32 -1.83, 439.3 -1.12, 558 0 M27 0 C208.58 2.32, 389.84 2.26, 558 0 M558 0 C576.65 -1.27, 583.12 8.25, 585 27 M558 0 C576.71 0.83, 585.97 9.75, 585 27 M585 27 C585.07 42.56, 586.18 57.48, 585 81 M585 27 C586.02 40.36, 586.3 53.88, 585 81 M585 81 C584.38 99.11, 576.49 107.3, 558 108 M585 81 C583.47 98.52, 576.41 108.33, 558 108 M558 108 C365.14 108.03, 172.24 108.3, 27 108 M558 108 C431.28 110, 304.48 110.05, 27 108 M27 108 C10.08 107.57, 1.44 100.24, 0 81 M27 108 C7.57 108.2, -1.18 99.81, 0 81 M0 81 C0.22 62.12, -0.34 42.56, 0 27 M0 81 C-0.96 62.13, -0.75 42.46, 0 27 M0 27 C-1.31 7.42, 10.63 -0.02, 27 0 M0 27 C-0.97 9.06, 9.63 1.36, 27 0" stroke="#1e1e1e" stroke-width="1" fill="none"></path></g><g transform="translate(442.4417081052437 601) rotate(0 96.38996887207031 22.5)"><text x="0" y="0" font-family="Virgil, Segoe UI Emoji" font-size="36px" fill="#1e1e1e" text-anchor="start" style="white-space: pre;" direction="ltr" dominant-baseline="text-before-edge">JVM (java)</text></g><g transform="translate(1688.0082974607124 374.14998372395837) rotate(0 0.00004999999998744897 0.00004999999998744897)" stroke="none"><path fill="#1e1e1e" d="M 1.57,-1.57 Q 1.57,-1.57 1.77,-1.27 1.98,-0.98 2.09,-0.64 2.20,-0.29 2.19,0.05 2.18,0.41 2.05,0.75 1.93,1.09 1.70,1.37 1.48,1.65 1.18,1.84 0.87,2.04 0.52,2.12 0.18,2.21 -0.17,2.18 -0.53,2.15 -0.86,2.01 -1.19,1.87 -1.46,1.63 -1.73,1.39 -1.90,1.07 -2.08,0.76 -2.15,0.41 -2.21,0.05 -2.17,-0.29 -2.12,-0.65 -1.96,-0.97 -1.80,-1.29 -1.54,-1.54 -1.29,-1.80 -0.97,-1.96 -0.65,-2.12 -0.29,-2.17 0.06,-2.21 0.41,-2.15 0.76,-2.08 1.07,-1.90 1.39,-1.73 1.63,-1.46 1.87,-1.19 2.01,-0.86 2.15,-0.53 2.18,-0.17 2.21,0.18 2.12,0.52 2.03,0.87 1.84,1.18 1.65,1.48 1.37,1.70 1.09,1.93 0.75,2.05 0.41,2.18 0.05,2.19 -0.30,2.20 -0.64,2.09 -0.98,1.98 -1.27,1.77 -1.57,1.56 -1.57,1.57 -1.57,1.57 -1.73,1.35 -1.90,1.14 -2.01,0.90 -2.12,0.66 -2.16,0.39 -2.21,0.13 -2.20,-0.13 -2.18,-0.40 -2.10,-0.65 -2.02,-0.91 -1.88,-1.14 -1.74,-1.36 -1.55,-1.55 -1.36,-1.74 -1.14,-1.88 -0.91,-2.02 -0.65,-2.10 -0.40,-2.18 -0.13,-2.20 0.13,-2.21 0.39,-2.16 0.66,-2.12 0.90,-2.01 1.14,-1.90 1.35,-1.73 1.57,-1.57 1.57,-1.57 L 1.57,-1.57 Z"></path></g><g stroke-linecap="round"><g transform="translate(979.4112898542932 383.8588469145409) rotate(0 99.72865314761407 6.174155694003076)"><path d="M-0.64 0.71 C32.9 2.72, 166.64 9.45, 200.1 11.14 M1.22 0.04 C34.66 2.27, 165.9 10.38, 198.87 12.31" stroke="#1e1e1e" stroke-width="1" fill="none"></path></g><g transform="translate(979.4112898542932 383.8588469145409) rotate(0 99.72865314761407 6.174155694003076)"><path d="M171.3 19.96 C174.91 18.35, 180.34 17.92, 197.38 10.74 M170.54 19.97 C178.56 18.24, 188.44 15.58, 198.47 11.49" stroke="#1e1e1e" stroke-width="1" fill="none"></path></g><g transform="translate(979.4112898542932 383.8588469145409) rotate(0 99.72865314761407 6.174155694003076)"><path d="M172.54 -0.52 C175.74 2.06, 180.91 5.84, 197.38 10.74 M171.78 -0.51 C179.5 4.11, 189 7.81, 198.47 11.49" stroke="#1e1e1e" stroke-width="1" fill="none"></path></g></g><mask></mask><g transform="translate(1049.4417081052438 317) rotate(0 26.767982482910156 17.5)"><text x="0" y="0" font-family="Virgil, Segoe UI Emoji" font-size="28px" fill="#1e1e1e" text-anchor="start" style="white-space: pre;" direction="ltr" dominant-baseline="text-before-edge">SQL</text></g><g transform="translate(1642.0083381508166 669.4834391276041) rotate(0 0.00004999999998744897 0.00004999999998744897)" stroke="none"><path fill="#1e1e1e" d="M 1.57,-1.57 Q 1.57,-1.57 1.77,-1.27 1.98,-0.98 2.09,-0.64 2.20,-0.29 2.19,0.05 2.18,0.41 2.05,0.75 1.93,1.09 1.70,1.37 1.48,1.65 1.18,1.84 0.87,2.04 0.52,2.12 0.18,2.21 -0.17,2.18 -0.53,2.15 -0.86,2.01 -1.19,1.87 -1.46,1.63 -1.73,1.39 -1.90,1.07 -2.08,0.76 -2.15,0.41 -2.21,0.05 -2.17,-0.29 -2.12,-0.65 -1.96,-0.97 -1.80,-1.29 -1.54,-1.54 -1.29,-1.80 -0.97,-1.96 -0.65,-2.12 -0.29,-2.17 0.06,-2.21 0.41,-2.15 0.76,-2.08 1.07,-1.90 1.39,-1.73 1.63,-1.46 1.87,-1.19 2.01,-0.86 2.15,-0.53 2.18,-0.17 2.21,0.18 2.12,0.52 2.03,0.87 1.84,1.18 1.65,1.48 1.37,1.70 1.09,1.93 0.75,2.05 0.41,2.18 0.05,2.19 -0.30,2.20 -0.64,2.09 -0.98,1.98 -1.27,1.77 -1.57,1.56 -1.57,1.57 -1.57,1.57 -1.73,1.35 -1.90,1.14 -2.01,0.90 -2.12,0.66 -2.16,0.39 -2.21,0.13 -2.20,-0.13 -2.18,-0.40 -2.10,-0.65 -2.02,-0.91 -1.88,-1.14 -1.74,-1.36 -1.55,-1.55 -1.36,-1.74 -1.14,-1.88 -0.91,-2.02 -0.65,-2.10 -0.40,-2.18 -0.13,-2.20 0.13,-2.21 0.39,-2.16 0.66,-2.12 0.90,-2.01 1.14,-1.90 1.35,-1.73 1.57,-1.57 1.57,-1.57 L 1.57,-1.57 Z"></path></g><g stroke-linecap="round" transform="translate(747.4417081052437 391) rotate(0 101.5 68.5)"><path d="M32 0 M32 0 C74.07 -1.01, 115.94 -0.15, 171 0 M32 0 C60.2 -0.39, 88.84 -0.5, 171 0 M171 0 C193.47 -0.9, 201.98 11.55, 203 32 M171 0 C193.37 1.69, 203.81 9.27, 203 32 M203 32 C203.77 61.68, 202.62 86.88, 203 105 M203 32 C203.73 47.71, 202.84 62.82, 203 105 M203 105 C203.47 127.65, 193.41 135.26, 171 137 M203 105 C203.38 125.44, 192.46 135.86, 171 137 M171 137 C118.93 137.21, 69.26 135.01, 32 137 M171 137 C119.04 137.12, 65.72 138.31, 32 137 M32 137 C10.48 135.54, 1.48 126.57, 0 105 M32 137 C11.97 137.05, -0.08 128.03, 0 105 M0 105 C1.71 76.97, 1.71 50.35, 0 32 M0 105 C-0.02 78.97, -1 53.66, 0 32 M0 32 C0.98 12.46, 10.49 -0.78, 32 0 M0 32 C2.13 12.58, 11.42 -0.97, 32 0" stroke="#1e1e1e" stroke-width="1" fill="none"></path></g><g transform="translate(784.4417081052437 418) rotate(0 79.98196411132812 52.5)"><text x="0" y="0" font-family="Virgil, Segoe UI Emoji" font-size="28px" fill="#f08c00" text-anchor="start" style="white-space: pre;" direction="ltr" dominant-baseline="text-before-edge">Driver</text><text x="0" y="35" font-family="Virgil, Segoe UI Emoji" font-size="28px" fill="#f08c00" text-anchor="start" style="white-space: pre;" direction="ltr" dominant-baseline="text-before-edge">JDBC</text><text x="0" y="70" font-family="Virgil, Segoe UI Emoji" font-size="28px" fill="#f08c00" text-anchor="start" style="white-space: pre;" direction="ltr" dominant-baseline="text-before-edge">PostgreSQL</text></g><g transform="translate(1227.4417081052438 368) rotate(0 117.71194458007812 105)"><text x="0" y="0" font-family="Virgil, Segoe UI Emoji" font-size="28px" fill="#1971c2" text-anchor="start" style="white-space: pre;" direction="ltr" dominant-baseline="text-before-edge">host: ip or name </text><text x="0" y="35" font-family="Virgil, Segoe UI Emoji" font-size="28px" fill="#1971c2" text-anchor="start" style="white-space: pre;" direction="ltr" dominant-baseline="text-before-edge">port: 5432</text><text x="0" y="70" font-family="Virgil, Segoe UI Emoji" font-size="28px" fill="#1971c2" text-anchor="start" style="white-space: pre;" direction="ltr" dominant-baseline="text-before-edge">dbname: dbmovie</text><text x="0" y="105" font-family="Virgil, Segoe UI Emoji" font-size="28px" fill="#1971c2" text-anchor="start" style="white-space: pre;" direction="ltr" dominant-baseline="text-before-edge">user: movie</text><text x="0" y="140" font-family="Virgil, Segoe UI Emoji" font-size="28px" fill="#1971c2" text-anchor="start" style="white-space: pre;" direction="ltr" dominant-baseline="text-before-edge">password: XXX</text><text x="0" y="175" font-family="Virgil, Segoe UI Emoji" font-size="28px" fill="#1971c2" text-anchor="start" style="white-space: pre;" direction="ltr" dominant-baseline="text-before-edge"></text></g><g stroke-linecap="round"><g transform="translate(1242.4417081052438 289.00000000000006) rotate(0 73.693920735186 -0.042343038118104914)"><path d="M0.45 0.41 C13.16 0.48, 51.56 -0.06, 76.17 0.1 C100.79 0.26, 136.11 1.31, 148.16 1.37 M-0.77 -0.41 C11.9 -0.63, 51.13 -1.39, 75.84 -1.45 C100.55 -1.51, 135.3 -1.23, 147.48 -0.78" stroke="#1971c2" stroke-width="1" fill="none"></path></g></g><mask></mask><g stroke-linecap="round" transform="translate(376.4417081052437 95) rotate(0 286 29.5)"><path d="M14.75 0 M14.75 0 C191.97 -2.34, 368.55 -2.38, 557.25 0 M14.75 0 C227.27 -1.29, 439.73 -1.46, 557.25 0 M557.25 0 C565.37 0.69, 570.77 3.79, 572 14.75 M557.25 0 C568.38 -0.13, 570.28 2.72, 572 14.75 M572 14.75 C573.16 19.85, 571.54 27.94, 572 44.25 M572 14.75 C572.41 24.25, 572.49 34.58, 572 44.25 M572 44.25 C570.55 55.49, 567.28 58.35, 557.25 59 M572 44.25 C572.73 55.87, 568.72 58.97, 557.25 59 M557.25 59 C447.08 60.19, 337.46 59.95, 14.75 59 M557.25 59 C354.43 58.23, 151.57 58.11, 14.75 59 M14.75 59 C3.7 60.64, 1.08 53.33, 0 44.25 M14.75 59 C6.44 60.16, -1.57 52.07, 0 44.25 M0 44.25 C-1.16 35.22, 1.72 26.7, 0 14.75 M0 44.25 C-0.09 31.81, -0.1 20.47, 0 14.75 M0 14.75 C-0.9 6.85, 6.11 -0.3, 14.75 0 M0 14.75 C1.91 7.08, 5.37 -1.14, 14.75 0" stroke="#1971c2" stroke-width="1" fill="none"></path></g><g transform="translate(420.4417081052437 113) rotate(0 198.60386657714844 17.5)"><text x="0" y="0" font-family="Virgil, Segoe UI Emoji" font-size="28px" fill="#1971c2" text-anchor="start" style="white-space: pre;" direction="ltr" dominant-baseline="text-before-edge">application.properties (config)</text></g><g stroke-linecap="round" transform="translate(14.441708105243748 103) rotate(0 98.5 48.5)"><path d="M24.25 0 M24.25 0 C71.42 1.09, 116.7 -0.79, 172.75 0 M24.25 0 C60.51 0.63, 97.86 0.3, 172.75 0 M172.75 0 C189.66 1.85, 198.82 8.12, 197 24.25 M172.75 0 C189.03 0.9, 198.18 5.85, 197 24.25 M197 24.25 C196.82 37.45, 199.11 48.18, 197 72.75 M197 24.25 C197.01 38.63, 196.53 51.62, 197 72.75 M197 72.75 C198.99 88.13, 189.3 97.55, 172.75 97 M197 72.75 C199.23 89.88, 188.96 98.23, 172.75 97 M172.75 97 C139.4 98.21, 102.18 98.02, 24.25 97 M172.75 97 C134.63 97.34, 95.99 96.88, 24.25 97 M24.25 97 C8.7 98.15, 0.91 88.04, 0 72.75 M24.25 97 C10.06 97.8, -0.5 90.86, 0 72.75 M0 72.75 C-0.73 55.43, 1.79 36.11, 0 24.25 M0 72.75 C0.37 60.76, -0.78 49.79, 0 24.25 M0 24.25 C0 7.25, 9.6 1.76, 24.25 0 M0 24.25 C1.54 9.01, 8.48 0.87, 24.25 0" stroke="#2f9e44" stroke-width="1" fill="none"></path></g><g transform="translate(39.44170810524375 112) rotate(0 62.52398681640625 35)"><text x="0" y="0" font-family="Virgil, Segoe UI Emoji" font-size="28px" fill="#2f9e44" text-anchor="start" style="white-space: pre;" direction="ltr" dominant-baseline="text-before-edge">src Java</text><text x="0" y="35" font-family="Virgil, Segoe UI Emoji" font-size="28px" fill="#2f9e44" text-anchor="start" style="white-space: pre;" direction="ltr" dominant-baseline="text-before-edge">pom.xml</text></g><g stroke-linecap="round"><g transform="translate(120.30891631093678 216) rotate(0 127.72253483144164 74.44249702444299)"><path d="M0.26 0.16 C11.56 14.4, 25.33 60.68, 68.03 85.6 C110.74 110.52, 225.06 139.21, 256.5 149.69 M-1.06 -0.8 C10.04 13.59, 24.2 62.17, 67.03 86.93 C109.86 111.68, 224.23 137.31, 255.93 147.71" stroke="#2f9e44" stroke-width="1" fill="none"></path></g><g transform="translate(120.30891631093678 216) rotate(0 127.72253483144164 74.44249702444299)"><path d="M226.28 149.84 C235.02 149.81, 246.51 149.37, 255.05 149.43 M226.62 149.31 C236.18 148.45, 246.11 148.94, 255.08 146.99" stroke="#2f9e44" stroke-width="1" fill="none"></path></g><g transform="translate(120.30891631093678 216) rotate(0 127.72253483144164 74.44249702444299)"><path d="M231.8 130.08 C238.78 136.45, 248.49 142.4, 255.05 149.43 M232.14 129.55 C239.81 135.35, 247.9 142.45, 255.08 146.99" stroke="#2f9e44" stroke-width="1" fill="none"></path></g></g><mask></mask><g transform="translate(60.44170810524375 282) rotate(0 83.8179702758789 35)"><text x="0" y="0" font-family="Virgil, Segoe UI Emoji" font-size="28px" fill="#2f9e44" text-anchor="start" style="white-space: pre;" direction="ltr" dominant-baseline="text-before-edge">mvn package</text><text x="0" y="35" font-family="Virgil, Segoe UI Emoji" font-size="28px" fill="#2f9e44" text-anchor="start" style="white-space: pre;" direction="ltr" dominant-baseline="text-before-edge">+ copy jar</text></g><g stroke-linecap="round"><g transform="translate(11.441708105243748 54) rotate(0 157.5481572301127 -2.170480962786826)"><path d="M0.01 -0.27 C52.81 -0.47, 263.8 -1.94, 316.54 -2.31 M-1.44 -1.45 C51.18 -1.9, 262.55 -3.54, 315.35 -4.07" stroke="#2f9e44" stroke-width="1" fill="none"></path></g></g><mask></mask><g transform="translate(109.44170810524375 25) rotate(0 0.00004999999998744897 0.00005000000000165983)" stroke="none"><path fill="#2f9e44" d="M 1.57,-1.57 Q 1.57,-1.57 1.77,-1.27 1.98,-0.98 2.09,-0.64 2.20,-0.29 2.19,0.05 2.18,0.41 2.05,0.75 1.93,1.09 1.70,1.37 1.48,1.65 1.18,1.84 0.87,2.04 0.52,2.12 0.18,2.21 -0.17,2.18 -0.53,2.15 -0.86,2.01 -1.19,1.87 -1.46,1.63 -1.73,1.39 -1.90,1.07 -2.08,0.76 -2.15,0.41 -2.21,0.05 -2.17,-0.29 -2.12,-0.65 -1.96,-0.97 -1.80,-1.29 -1.54,-1.54 -1.29,-1.80 -0.97,-1.96 -0.65,-2.12 -0.29,-2.17 0.06,-2.21 0.41,-2.15 0.76,-2.08 1.07,-1.90 1.39,-1.73 1.63,-1.46 1.87,-1.19 2.01,-0.86 2.15,-0.53 2.18,-0.17 2.21,0.18 2.12,0.52 2.03,0.87 1.84,1.18 1.65,1.48 1.37,1.70 1.09,1.93 0.75,2.05 0.41,2.18 0.05,2.19 -0.30,2.20 -0.64,2.09 -0.98,1.98 -1.27,1.77 -1.57,1.56 -1.57,1.57 -1.57,1.57 -1.73,1.35 -1.90,1.14 -2.01,0.90 -2.12,0.66 -2.16,0.39 -2.21,0.13 -2.20,-0.13 -2.18,-0.40 -2.10,-0.65 -2.02,-0.91 -1.88,-1.14 -1.74,-1.36 -1.55,-1.55 -1.36,-1.74 -1.14,-1.88 -0.91,-2.02 -0.65,-2.10 -0.40,-2.18 -0.13,-2.20 0.13,-2.21 0.39,-2.16 0.66,-2.12 0.90,-2.01 1.14,-1.90 1.35,-1.73 1.57,-1.57 1.57,-1.57 L 1.57,-1.57 Z"></path></g><g transform="translate(104.44170810524375 17) rotate(0 16.64599609375 17.5)"><text x="0" y="0" font-family="Virgil, Segoe UI Emoji" font-size="28px" fill="#2f9e44" text-anchor="start" style="white-space: pre;" direction="ltr" dominant-baseline="text-before-edge">CI</text></g><g stroke-linecap="round"><g transform="translate(374.4417081052437 52) rotate(0 547.7138784817793 0.21819396605715013)"><path d="M1 -0.44 C183.56 -0.03, 912.97 1.99, 1095.36 2.15 M0.06 -1.72 C182.5 -1.58, 912.15 0.09, 1094.61 0.64" stroke="#e03131" stroke-width="1" fill="none"></path></g></g><mask></mask><g transform="translate(814.4417081052437 27) rotate(0 0.00004999999998744897 0.00005000000000165983)" stroke="none"><path fill="#e03131" d="M 1.57,-1.57 Q 1.57,-1.57 1.77,-1.27 1.98,-0.98 2.09,-0.64 2.20,-0.29 2.19,0.05 2.18,0.41 2.05,0.75 1.93,1.09 1.70,1.37 1.48,1.65 1.18,1.84 0.87,2.04 0.52,2.12 0.18,2.21 -0.17,2.18 -0.53,2.15 -0.86,2.01 -1.19,1.87 -1.46,1.63 -1.73,1.39 -1.90,1.07 -2.08,0.76 -2.15,0.41 -2.21,0.05 -2.17,-0.29 -2.12,-0.65 -1.96,-0.97 -1.80,-1.29 -1.54,-1.54 -1.29,-1.80 -0.97,-1.96 -0.65,-2.12 -0.29,-2.17 0.06,-2.21 0.41,-2.15 0.76,-2.08 1.07,-1.90 1.39,-1.73 1.63,-1.46 1.87,-1.19 2.01,-0.86 2.15,-0.53 2.18,-0.17 2.21,0.18 2.12,0.52 2.03,0.87 1.84,1.18 1.65,1.48 1.37,1.70 1.09,1.93 0.75,2.05 0.41,2.18 0.05,2.19 -0.30,2.20 -0.64,2.09 -0.98,1.98 -1.27,1.77 -1.57,1.56 -1.57,1.57 -1.57,1.57 -1.73,1.35 -1.90,1.14 -2.01,0.90 -2.12,0.66 -2.16,0.39 -2.21,0.13 -2.20,-0.13 -2.18,-0.40 -2.10,-0.65 -2.02,-0.91 -1.88,-1.14 -1.74,-1.36 -1.55,-1.55 -1.36,-1.74 -1.14,-1.88 -0.91,-2.02 -0.65,-2.10 -0.40,-2.18 -0.13,-2.20 0.13,-2.21 0.39,-2.16 0.66,-2.12 0.90,-2.01 1.14,-1.90 1.35,-1.73 1.57,-1.57 1.57,-1.57 L 1.57,-1.57 Z"></path></g><g transform="translate(779.4417081052437 10) rotate(0 19.935997009277344 17.5)"><text x="0" y="0" font-family="Virgil, Segoe UI Emoji" font-size="28px" fill="#e03131" text-anchor="start" style="white-space: pre;" direction="ltr" dominant-baseline="text-before-edge">CD</text></g><g transform="translate(1208.4417081052438 709) rotate(0 141.0079345703125 35)"><text x="0" y="0" font-family="Virgil, Segoe UI Emoji" font-size="28px" fill="#1e1e1e" text-anchor="start" style="white-space: pre;" direction="ltr" dominant-baseline="text-before-edge">docker, windows host</text><text x="0" y="35" font-family="Virgil, Segoe UI Emoji" font-size="28px" fill="#1e1e1e" text-anchor="start" style="white-space: pre;" direction="ltr" dominant-baseline="text-before-edge">or linux host</text></g><g transform="translate(511.4337735349312 715) rotate(0 141.0079345703125 35)"><text x="0" y="0" font-family="Virgil, Segoe UI Emoji" font-size="28px" fill="#1e1e1e" text-anchor="start" style="white-space: pre;" direction="ltr" dominant-baseline="text-before-edge">docker, windows host</text><text x="0" y="35" font-family="Virgil, Segoe UI Emoji" font-size="28px" fill="#1e1e1e" text-anchor="start" style="white-space: pre;" direction="ltr" dominant-baseline="text-before-edge">or linux host</text></g></svg>