<svg version="1.1" xmlns="http://www.w3.org/2000/svg" viewBox="0 0 1724 1065.2438305897535" width="1724" height="1065.2438305897535">
  <!-- svg-source:excalidraw -->
  
  <defs>
    <style class="style-fonts">
      @font-face {
        font-family: "Virgil";
        src: url("https://excalidraw.com/Virgil.woff2");
      }
      @font-face {
        font-family: "Cascadia";
        src: url("https://excalidraw.com/Cascadia.woff2");
      }
    </style>
    
  </defs>
  <rect x="0" y="0" width="1724" height="1065.2438305897535" fill="#ffffff"></rect><g stroke-linecap="round" transform="translate(10 10) rotate(0 852 522.6219152948768)"><path d="M32 0 M32 0 C488.34 5.49, 945.14 5.87, 1672 0 M32 0 C679.17 -4.44, 1326.8 -4.98, 1672 0 M1672 0 C1692.89 -0.55, 1702.86 12.11, 1704 32 M1672 0 C1694.28 0.31, 1703.09 10.49, 1704 32 M1704 32 C1701.86 268.57, 1701.86 503.08, 1704 1013.24 M1704 32 C1706.47 309.66, 1706.63 586.82, 1704 1013.24 M1704 1013.24 C1703.14 1033.19, 1691.69 1044.03, 1672 1045.24 M1704 1013.24 C1703.43 1036.87, 1694.32 1045.49, 1672 1045.24 M1672 1045.24 C1214.2 1043.91, 756.01 1042.74, 32 1045.24 M1672 1045.24 C1110.13 1048.76, 547.56 1049.04, 32 1045.24 M32 1045.24 C10.39 1043.36, 1.95 1033.18, 0 1013.24 M32 1045.24 C10.73 1047.39, -0.65 1033.77, 0 1013.24 M0 1013.24 C-2.72 705.82, -2.08 399.07, 0 32 M0 1013.24 C-1.56 745.41, -2.28 476.86, 0 32 M0 32 C-0.77 8.69, 11.96 -0.67, 32 0 M0 32 C0.81 12.7, 11.4 -0.49, 32 0" stroke="#1e1e1e" stroke-width="1" fill="none"></path></g><g transform="translate(698.7972391783003 45.33409198310687) rotate(0 146.6099395751953 22.5)"><text x="0" y="0" font-family="Virgil, Segoe UI Emoji" font-size="36px" fill="#1e1e1e" text-anchor="start" style="white-space: pre;" direction="ltr" dominant-baseline="text-before-edge">Windows Host: ip1</text></g><g stroke-linecap="round" transform="translate(145 77) rotate(0 158.5 70)"><path d="M32 0 M32 0 C119.95 -1.62, 210.06 -1.47, 285 0 M32 0 C98.35 -0.81, 165.49 -0.69, 285 0 M285 0 C306.77 1.5, 316.39 10.12, 317 32 M285 0 C307.97 0.88, 316.66 10.53, 317 32 M317 32 C316.81 62.25, 315.48 91.05, 317 108 M317 32 C316.4 54.33, 316.98 75.27, 317 108 M317 108 C316.79 127.35, 304.34 139.7, 285 140 M317 108 C316.85 130.43, 307.98 139.91, 285 140 M285 140 C199.68 142.26, 115.39 141.87, 32 140 M285 140 C231.24 141.85, 176.22 141.43, 32 140 M32 140 C11 140.73, 1.83 131.13, 0 108 M32 140 C11.07 140.06, 1.66 130.12, 0 108 M0 108 C1.8 84.89, -1.31 59.07, 0 32 M0 108 C0.22 85.09, 1.2 62.9, 0 32 M0 32 C-0.88 10.06, 11.71 0.46, 32 0 M0 32 C-1.14 9.34, 9.19 -2.09, 32 0" stroke="#1e1e1e" stroke-width="1" fill="none"></path></g><g transform="translate(180 104) rotate(0 69.59397888183594 17.5)"><text x="0" y="0" font-family="Virgil, Segoe UI Emoji" font-size="28px" fill="#1e1e1e" text-anchor="start" style="white-space: pre;" direction="ltr" dominant-baseline="text-before-edge">API Movie</text></g><g stroke-linecap="round" transform="translate(177 155) rotate(0 131.5 25)"><path d="M12.5 0 M12.5 0 C90.98 1.21, 169.74 -0.03, 250.5 0 M12.5 0 C84.72 -1.22, 155.9 -0.14, 250.5 0 M250.5 0 C260.61 -1.8, 263.85 4.2, 263 12.5 M250.5 0 C257.78 0.9, 262.7 4.24, 263 12.5 M263 12.5 C262.59 23.17, 263.65 30.76, 263 37.5 M263 12.5 C262.64 17.57, 262.1 24.74, 263 37.5 M263 37.5 C264.29 45.25, 257.26 51.06, 250.5 50 M263 37.5 C263.75 46.1, 257.23 49.69, 250.5 50 M250.5 50 C197.83 51.1, 144.14 50.95, 12.5 50 M250.5 50 C186.29 47.51, 122.99 48.62, 12.5 50 M12.5 50 C2.24 50.72, -0.26 46.46, 0 37.5 M12.5 50 C2.72 50.64, -0.35 48, 0 37.5 M0 37.5 C-1.68 32.95, -1.04 24.42, 0 12.5 M0 37.5 C0.83 29.33, -0.3 19.57, 0 12.5 M0 12.5 C-1.33 4.28, 5.13 1.19, 12.5 0 M0 12.5 C-0.03 6.26, 5.29 1.51, 12.5 0" stroke="#f08c00" stroke-width="1" fill="none"></path></g><g transform="translate(190 163) rotate(0 117.19395446777344 17.5)"><text x="0" y="0" font-family="Virgil, Segoe UI Emoji" font-size="28px" fill="#f08c00" text-anchor="start" style="white-space: pre;" direction="ltr" dominant-baseline="text-before-edge">driver Postgresql</text></g><g stroke-linecap="round" transform="translate(145.5 247) rotate(0 158.5 70)"><path d="M32 0 M32 0 C103.27 0.82, 174.17 2.32, 285 0 M32 0 C83.6 0.26, 134.39 1.4, 285 0 M285 0 C304.85 -0.49, 318.7 11.71, 317 32 M285 0 C305.82 -0.98, 315.74 11.32, 317 32 M317 32 C317.98 53.12, 317.93 76.56, 317 108 M317 32 C317.43 51.59, 317.3 70.81, 317 108 M317 108 C315.08 127.51, 304.92 138.89, 285 140 M317 108 C317.45 131.24, 305.85 140.61, 285 140 M285 140 C193.55 140.5, 98.01 139.38, 32 140 M285 140 C193.42 139.62, 101.53 139.05, 32 140 M32 140 C8.91 140.54, 1.3 130.68, 0 108 M32 140 C9.73 138.8, -0.15 127.15, 0 108 M0 108 C1.63 83.2, 0.44 61.25, 0 32 M0 108 C-0.27 91.06, 0.18 75.94, 0 32 M0 32 C1.98 9.94, 11.93 0.66, 32 0 M0 32 C0.82 10.66, 9.29 0.09, 32 0" stroke="#1e1e1e" stroke-width="1" fill="none"></path></g><g transform="translate(180.5 274) rotate(0 69.59397888183594 17.5)"><text x="0" y="0" font-family="Virgil, Segoe UI Emoji" font-size="28px" fill="#1e1e1e" text-anchor="start" style="white-space: pre;" direction="ltr" dominant-baseline="text-before-edge">API Movie</text></g><g stroke-linecap="round" transform="translate(177.5 325) rotate(0 131.5 25)"><path d="M12.5 0 M12.5 0 C73.21 -1.49, 136.68 0.1, 250.5 0 M12.5 0 C71.78 -2.04, 133.01 -1.4, 250.5 0 M250.5 0 C258.39 -0.85, 261.91 4.73, 263 12.5 M250.5 0 C258.66 0.53, 262.25 5.1, 263 12.5 M263 12.5 C262.09 19.04, 263.26 25.3, 263 37.5 M263 12.5 C262.07 20.55, 262.33 29.88, 263 37.5 M263 37.5 C263.39 47.49, 258.41 50.53, 250.5 50 M263 37.5 C264.56 45.95, 258.49 52.2, 250.5 50 M250.5 50 C168.28 50.92, 83.83 49.71, 12.5 50 M250.5 50 C184.17 48.33, 119.85 48.67, 12.5 50 M12.5 50 C3.35 48.95, -0.13 43.93, 0 37.5 M12.5 50 C4.54 50.22, -2.11 47.79, 0 37.5 M0 37.5 C-1.75 32.65, -1.09 25.14, 0 12.5 M0 37.5 C0.78 31, 0.42 25.56, 0 12.5 M0 12.5 C0.71 4.16, 2.97 0.08, 12.5 0 M0 12.5 C-1.29 2.44, 5.1 -2.27, 12.5 0" stroke="#f08c00" stroke-width="1" fill="none"></path></g><g transform="translate(190.5 333) rotate(0 104.63595581054688 17.5)"><text x="0" y="0" font-family="Virgil, Segoe UI Emoji" font-size="28px" fill="#f08c00" text-anchor="start" style="white-space: pre;" direction="ltr" dominant-baseline="text-before-edge">driver MariaDB</text></g><g stroke-linecap="round" transform="translate(10 117) rotate(0 67.5 26)"><path d="M13 0 M13 0 C38.68 1.67, 66.29 -1.7, 122 0 M13 0 C37.12 -0.03, 58.44 -0.66, 122 0 M122 0 C132.34 -1.87, 135.85 3.18, 135 13 M122 0 C132.5 -0.27, 136.26 4.7, 135 13 M135 13 C136.52 20.11, 133.91 23.98, 135 39 M135 13 C135.91 22.12, 135.41 30.22, 135 39 M135 39 C135.21 46.57, 130.18 52.95, 122 52 M135 39 C135.58 45.77, 129.33 50.35, 122 52 M122 52 C99.7 51.29, 78.95 53.43, 13 52 M122 52 C82.07 50.96, 44.25 51.8, 13 52 M13 52 C2.63 51.67, -0.32 49.1, 0 39 M13 52 C2.65 50.72, 0.35 45.5, 0 39 M0 39 C0.32 29.14, 0.07 21.23, 0 13 M0 39 C-0.65 32.43, 0.42 26.76, 0 13 M0 13 C-1.21 4.45, 6.25 1.22, 13 0 M0 13 C-1.07 4.77, 5.34 1.09, 13 0" stroke="#1971c2" stroke-width="1" fill="none"></path></g><g transform="translate(20 134) rotate(0 51.295982360839844 17.5)"><text x="0" y="0" font-family="Virgil, Segoe UI Emoji" font-size="28px" fill="#1971c2" text-anchor="start" style="white-space: pre;" direction="ltr" dominant-baseline="text-before-edge">*:8080</text></g><g stroke-linecap="round" transform="translate(11.5 291) rotate(0 67.5 26)"><path d="M13 0 M13 0 C36.6 -1.72, 63.63 -1.19, 122 0 M13 0 C39.69 -1.51, 65.36 -0.61, 122 0 M122 0 C131.61 -1.87, 134.38 4.53, 135 13 M122 0 C131.71 1.55, 134.03 3.38, 135 13 M135 13 C137 20.74, 134.94 28.09, 135 39 M135 13 C135.4 21.94, 134.53 32.75, 135 39 M135 39 C134.49 49.33, 129.78 52.87, 122 52 M135 39 C133.14 48.34, 128.86 51.37, 122 52 M122 52 C86.47 50.68, 54.39 53.14, 13 52 M122 52 C99.46 52.71, 76.85 51.39, 13 52 M13 52 C2.84 52.15, 1.51 48.71, 0 39 M13 52 C4.77 52.45, -1.86 49.14, 0 39 M0 39 C-0.13 34.93, -1.07 25.66, 0 13 M0 39 C0.44 33.02, 0.24 25.97, 0 13 M0 13 C0.94 5.46, 2.57 -0.4, 13 0 M0 13 C0.19 4.48, 2.89 1.83, 13 0" stroke="#1971c2" stroke-width="1" fill="none"></path></g><g transform="translate(21 304) rotate(0 45.457984924316406 17.5)"><text x="0" y="0" font-family="Virgil, Segoe UI Emoji" font-size="28px" fill="#1971c2" text-anchor="start" style="white-space: pre;" direction="ltr" dominant-baseline="text-before-edge">*:8081</text></g><g stroke-linecap="round" transform="translate(214.94334495516944 525.2569800715617) rotate(0 158.50000000000006 70)"><path d="M32 0 M32 0 C125.97 -0.47, 224.19 -2.08, 285 0 M32 0 C102.25 1.5, 171.66 2.01, 285 0 M285 0 C306.35 0.13, 316.58 11.94, 317 32 M285 0 C305.93 0.76, 318.38 8.88, 317 32 M317 32 C315.56 46.17, 316.77 62.43, 317 108 M317 32 C316.98 59.24, 315.98 84.95, 317 108 M317 108 C315.61 127.76, 307.98 139.88, 285 140 M317 108 C316.91 131.2, 308.45 138.68, 285 140 M285 140 C224.77 139.13, 165.1 138.18, 32 140 M285 140 C190.26 137.22, 95.08 138.63, 32 140 M32 140 C11.99 140.26, 1.33 130.7, 0 108 M32 140 C12.9 138.87, -1.85 127.04, 0 108 M0 108 C-2.4 90.19, -1.86 72.07, 0 32 M0 108 C0.3 89.72, -1.16 72.9, 0 32 M0 32 C-1.13 9.63, 10.71 -0.69, 32 0 M0 32 C-1.19 10.07, 11.87 0.61, 32 0" stroke="#1e1e1e" stroke-width="1" fill="none"></path></g><g transform="translate(249.94334495516944 552.2569800715617) rotate(0 69.59397888183594 17.5)"><text x="0" y="0" font-family="Virgil, Segoe UI Emoji" font-size="28px" fill="#1e1e1e" text-anchor="start" style="white-space: pre;" direction="ltr" dominant-baseline="text-before-edge">API Movie</text></g><g stroke-linecap="round" transform="translate(246.94334495516944 603.2569800715617) rotate(0 131.49999999999994 25)"><path d="M12.5 0 M12.5 0 C85.58 2.37, 157.76 2, 250.5 0 M12.5 0 C68.41 0.11, 124.12 0.59, 250.5 0 M250.5 0 C258.48 0.66, 264.2 2.61, 263 12.5 M250.5 0 C256.56 1.5, 261.94 1.93, 263 12.5 M263 12.5 C263.82 17.32, 262.85 25.62, 263 37.5 M263 12.5 C262.17 21.68, 263.69 32.38, 263 37.5 M263 37.5 C262.92 47.46, 260.68 48.86, 250.5 50 M263 37.5 C261.57 47.11, 258.04 49.96, 250.5 50 M250.5 50 C182.64 47.45, 110.6 49.67, 12.5 50 M250.5 50 C202.74 51.64, 154.42 52.1, 12.5 50 M12.5 50 C6.11 49.01, -1.61 43.84, 0 37.5 M12.5 50 C2.95 51.61, -0.8 43.69, 0 37.5 M0 37.5 C-1.22 30.29, -1.54 21.83, 0 12.5 M0 37.5 C-0.42 31.39, 0.17 25.97, 0 12.5 M0 12.5 C-1.03 3.65, 5.21 0.53, 12.5 0 M0 12.5 C-1.3 6.07, 2.52 -0.25, 12.5 0" stroke="#f08c00" stroke-width="1" fill="none"></path></g><g transform="translate(259.94334495516944 611.2569800715617) rotate(0 117.19395446777344 17.5)"><text x="0" y="0" font-family="Virgil, Segoe UI Emoji" font-size="28px" fill="#f08c00" text-anchor="start" style="white-space: pre;" direction="ltr" dominant-baseline="text-before-edge">driver Postgresql</text></g><g stroke-linecap="round" transform="translate(215.44334495516944 695.2569800715617) rotate(0 158.50000000000006 70)"><path d="M32 0 M32 0 C115.22 -1.53, 200.51 -0.22, 285 0 M32 0 C109.36 -1.04, 187.5 -1.94, 285 0 M285 0 C304.36 1.31, 316.08 8.73, 317 32 M285 0 C305.04 -0.84, 316.82 11.71, 317 32 M317 32 C318.95 48.89, 317.86 66.53, 317 108 M317 32 C317.59 49.65, 318.55 65.1, 317 108 M317 108 C315.76 130.45, 305.64 139.96, 285 140 M317 108 C316.78 130.04, 304.76 141.76, 285 140 M285 140 C225.53 142.38, 170.46 142.34, 32 140 M285 140 C206.61 141, 125.99 140.59, 32 140 M32 140 C9.61 141.4, -0.7 127.47, 0 108 M32 140 C11.78 138.48, 1.87 127.74, 0 108 M0 108 C-0.88 78.31, 0.55 49.82, 0 32 M0 108 C-0.53 88.9, 0.51 70.58, 0 32 M0 32 C-1.13 12.32, 9.24 -0.22, 32 0 M0 32 C-2.06 12.11, 8.54 1.65, 32 0" stroke="#1e1e1e" stroke-width="1" fill="none"></path></g><g transform="translate(250.44334495516944 722.2569800715617) rotate(0 69.59397888183594 17.5)"><text x="0" y="0" font-family="Virgil, Segoe UI Emoji" font-size="28px" fill="#1e1e1e" text-anchor="start" style="white-space: pre;" direction="ltr" dominant-baseline="text-before-edge">API Movie</text></g><g stroke-linecap="round" transform="translate(247.44334495516944 773.2569800715617) rotate(0 131.49999999999994 25)"><path d="M12.5 0 M12.5 0 C64.98 -0.37, 118.31 -0.31, 250.5 0 M12.5 0 C90.92 2.09, 170.61 0.74, 250.5 0 M250.5 0 C257.71 -0.73, 262.84 5.08, 263 12.5 M250.5 0 C257.37 -0.07, 264.08 6.44, 263 12.5 M263 12.5 C261.54 20.31, 262.99 24.75, 263 37.5 M263 12.5 C262.61 22.59, 262.88 31.55, 263 37.5 M263 37.5 C262.81 46.45, 257.47 51.53, 250.5 50 M263 37.5 C261.36 43.6, 260.25 47.77, 250.5 50 M250.5 50 C162.95 52.44, 76.11 52.95, 12.5 50 M250.5 50 C190.4 48.6, 130.89 47.23, 12.5 50 M12.5 50 C5.14 48.68, 1.63 44.44, 0 37.5 M12.5 50 C5.9 48.04, 2.02 44.08, 0 37.5 M0 37.5 C-1.03 31.5, -0.68 24.39, 0 12.5 M0 37.5 C-0.7 31.47, -0.85 23.68, 0 12.5 M0 12.5 C-1.79 5.43, 2.31 1.43, 12.5 0 M0 12.5 C-0.67 4.5, 2.01 -2.22, 12.5 0" stroke="#f08c00" stroke-width="1" fill="none"></path></g><g transform="translate(260.44334495516944 781.2569800715617) rotate(0 104.63595581054688 17.5)"><text x="0" y="0" font-family="Virgil, Segoe UI Emoji" font-size="28px" fill="#f08c00" text-anchor="start" style="white-space: pre;" direction="ltr" dominant-baseline="text-before-edge">driver MariaDB</text></g><g transform="translate(89.94334495516944 582.2569800715617) rotate(0 51.295982360839844 17.5)"><text x="0" y="0" font-family="Virgil, Segoe UI Emoji" font-size="28px" fill="#1971c2" text-anchor="start" style="white-space: pre;" direction="ltr" dominant-baseline="text-before-edge">*:8080</text></g><g transform="translate(90.94334495516944 752.2569800715617) rotate(0 45.457984924316406 17.5)"><text x="0" y="0" font-family="Virgil, Segoe UI Emoji" font-size="28px" fill="#1971c2" text-anchor="start" style="white-space: pre;" direction="ltr" dominant-baseline="text-before-edge">*:8081</text></g><g stroke-linecap="round" transform="translate(70.19334495516944 494.25698007156154) rotate(0 239 242.49999999999994)"><path d="M32 0 M32 0 C136.68 1.03, 239.68 0.67, 446 0 M32 0 C125.88 -0.29, 219.9 -0.07, 446 0 M446 0 C466 -1.5, 476.69 10.05, 478 32 M446 0 C465.07 0.46, 476.38 8.63, 478 32 M478 32 C478.8 190.73, 476.93 348.83, 478 453 M478 32 C479.47 118.25, 479.66 203.5, 478 453 M478 453 C478.71 476.03, 467.03 486.54, 446 485 M478 453 C478.36 472.38, 467 487.27, 446 485 M446 485 C359.3 482.93, 274.01 484.6, 32 485 M446 485 C345.82 486.89, 246.89 486.17, 32 485 M32 485 C8.82 483.28, -0.12 474.74, 0 453 M32 485 C8.9 484.46, 1.08 472.4, 0 453 M0 453 C2.81 299.03, 3.06 144, 0 32 M0 453 C0.53 344.62, 0.55 237.61, 0 32 M0 32 C0.16 12.37, 9.53 -0.93, 32 0 M0 32 C-0.62 12.82, 12.36 1, 32 0" stroke="#2f9e44" stroke-width="1" fill="none"></path></g><g transform="translate(86.19334495516944 940.2569800715617) rotate(0 99.91795349121094 17.5)"><text x="0" y="0" font-family="Virgil, Segoe UI Emoji" font-size="28px" fill="#2f9e44" text-anchor="start" style="white-space: pre;" direction="ltr" dominant-baseline="text-before-edge">Debian VM: ip2</text></g><g stroke-linecap="round" transform="translate(75.69334495516944 572.2569800715617) rotate(0 67.5 26)"><path d="M13 0 M13 0 C51.6 0.87, 87.62 1.76, 122 0 M13 0 C39.78 0.95, 67.71 1.56, 122 0 M122 0 C131.77 -0.62, 134.12 4.02, 135 13 M122 0 C131.01 -0.89, 135.23 2.37, 135 13 M135 13 C133.15 20.31, 135.42 31.67, 135 39 M135 13 C135.43 20.64, 134.22 30.34, 135 39 M135 39 C133.06 45.74, 129.2 53.83, 122 52 M135 39 C133.39 48.54, 129.65 50.03, 122 52 M122 52 C81.26 49.51, 39.83 51.13, 13 52 M122 52 C94.19 52.78, 64.69 52.65, 13 52 M13 52 C2.73 50.51, 0.56 48.19, 0 39 M13 52 C6.63 53.4, 0.3 49.66, 0 39 M0 39 C-0.55 33.63, -1.1 24.59, 0 13 M0 39 C-0.65 28.59, 1.07 19.62, 0 13 M0 13 C-1.79 4.01, 3.2 -1.87, 13 0 M0 13 C-1.29 3.37, 4.17 0.34, 13 0" stroke="#1971c2" stroke-width="1" fill="none"></path></g><g stroke-linecap="round" transform="translate(77.69334495516944 742.2569800715617) rotate(0 67.5 26)"><path d="M13 0 M13 0 C48.84 1.07, 83.73 1.21, 122 0 M13 0 C51.85 -0.99, 92.4 -1.79, 122 0 M122 0 C132.55 -1.69, 134.12 6.07, 135 13 M122 0 C131.97 -2.06, 134.62 3.03, 135 13 M135 13 C134.71 18.66, 135.07 25.33, 135 39 M135 13 C134.74 22.55, 135.52 32.88, 135 39 M135 39 C135.26 47.91, 131.43 51.53, 122 52 M135 39 C136.7 48.78, 132.42 50.72, 122 52 M122 52 C90.38 52.19, 62.96 53.53, 13 52 M122 52 C90.74 52.7, 61.62 52.73, 13 52 M13 52 C3.98 52.28, -1.61 49.03, 0 39 M13 52 C3.27 53.87, -1.35 49.87, 0 39 M0 39 C2.06 33.99, -1.41 30.08, 0 13 M0 39 C0.52 28.73, -0.33 19.96, 0 13 M0 13 C0.08 3.25, 5.98 0.23, 13 0 M0 13 C-2.24 2.88, 3.24 1.41, 13 0" stroke="#1971c2" stroke-width="1" fill="none"></path></g><g stroke-linecap="round" transform="translate(21 402) rotate(0 222.5 24.5)"><path d="M12.25 0 M12.25 0 C95.89 0.67, 180.51 -0.43, 432.75 0 M12.25 0 C131.38 -0.88, 250.86 -0.99, 432.75 0 M432.75 0 C442.84 -0.02, 444.48 3.55, 445 12.25 M432.75 0 C438.84 1.83, 446.59 2.82, 445 12.25 M445 12.25 C442.78 18.45, 445.48 20.74, 445 36.75 M445 12.25 C444.4 20.69, 445.21 29, 445 36.75 M445 36.75 C445.93 43.62, 440.88 49.5, 432.75 49 M445 36.75 C445.88 44.74, 440.98 47.26, 432.75 49 M432.75 49 C305.93 49.12, 179.51 49.53, 12.25 49 M432.75 49 C282.35 48.69, 131.38 48.92, 12.25 49 M12.25 49 C4.67 49.1, -0.86 45, 0 36.75 M12.25 49 C4.52 47.19, 1.18 46.59, 0 36.75 M0 36.75 C0.46 31.31, -1.72 24.33, 0 12.25 M0 36.75 C-0.56 28.42, 0.04 20.36, 0 12.25 M0 12.25 C0.64 4.06, 4.43 0.5, 12.25 0 M0 12.25 C0.97 3.19, 5.74 -1.84, 12.25 0" stroke="#1971c2" stroke-width="1" fill="none"></path></g><g transform="translate(38 413) rotate(0 135.12796020507812 17.5)"><text x="0" y="0" font-family="Virgil, Segoe UI Emoji" font-size="28px" fill="#1971c2" text-anchor="start" style="white-space: pre;" direction="ltr" dominant-baseline="text-before-edge">JVM/JRE 11 Windows</text></g><g stroke-linecap="round" transform="translate(94.69334495516944 856.7569800715617) rotate(0 222.5 24.5)"><path d="M12.25 0 M12.25 0 C122.5 0.77, 232.79 1.24, 432.75 0 M12.25 0 C150.56 -1.73, 289.36 -1.19, 432.75 0 M432.75 0 C440.06 0.04, 443.72 5.71, 445 12.25 M432.75 0 C442.39 2.02, 443.51 5.09, 445 12.25 M445 12.25 C447.05 18.91, 444.97 21.75, 445 36.75 M445 12.25 C444.26 22.14, 445.58 30.15, 445 36.75 M445 36.75 C446.91 44.94, 441.24 48.72, 432.75 49 M445 36.75 C446.55 45.7, 442.79 48.02, 432.75 49 M432.75 49 C276.84 49.58, 121.28 48.88, 12.25 49 M432.75 49 C285.99 49.28, 138.47 49.23, 12.25 49 M12.25 49 C3.23 47.33, 1.27 43.04, 0 36.75 M12.25 49 C3.01 49.76, 0.64 46.52, 0 36.75 M0 36.75 C0.18 29.51, 1.74 17.55, 0 12.25 M0 36.75 C-0.77 29.04, 0.85 19.65, 0 12.25 M0 12.25 C-0.3 6.07, 2.47 -0.05, 12.25 0 M0 12.25 C0.12 1.83, 2.79 -2.01, 12.25 0" stroke="#1971c2" stroke-width="1" fill="none"></path></g><g transform="translate(111.69334495516944 867.7569800715617) rotate(0 196.99392700195312 17.5)"><text x="0" y="0" font-family="Virgil, Segoe UI Emoji" font-size="28px" fill="#1971c2" text-anchor="start" style="white-space: pre;" direction="ltr" dominant-baseline="text-before-edge">JVM/JRE 17 OpenJDK-Debian</text></g><g stroke-linecap="round" transform="translate(1171 41) rotate(0 266.5 340.5)"><path d="M32 0 M32 0 C219.77 -0.44, 406.42 -1.15, 501 0 M32 0 C206.36 1.76, 380.97 1.97, 501 0 M501 0 C521.89 0.53, 531.2 12.31, 533 32 M501 0 C521.2 -0.75, 532.31 11.34, 533 32 M533 32 C531.43 232.44, 530.1 431.35, 533 649 M533 32 C534.39 253.89, 534.5 475.02, 533 649 M533 649 C532.62 670.75, 521.15 680.66, 501 681 M533 649 C533.39 672.29, 520.4 682.52, 501 681 M501 681 C394.68 683.32, 289.41 683.4, 32 681 M501 681 C403.06 680.83, 304.47 680.67, 32 681 M32 681 C11.39 680.3, -1.13 671.49, 0 649 M32 681 C11.7 679.62, 0.36 668.24, 0 649 M0 649 C0.39 521.39, 1.13 393.89, 0 32 M0 649 C0.53 406.24, 0.35 163.27, 0 32 M0 32 C0.22 10.37, 10.34 0.74, 32 0 M0 32 C-1.32 8.89, 12.14 1.54, 32 0" stroke="#e03131" stroke-width="1" fill="none"></path></g><g transform="translate(1369 689) rotate(0 46.199981689453125 17.5)"><text x="0" y="0" font-family="Virgil, Segoe UI Emoji" font-size="28px" fill="#e03131" text-anchor="start" style="white-space: pre;" direction="ltr" dominant-baseline="text-before-edge">Docker</text></g><g stroke-linecap="round" transform="translate(1187 71) rotate(0 242.5 152.5)"><path d="M32 0 M32 0 C190.83 2.59, 349.83 2.01, 453 0 M32 0 C117.53 0.97, 201.96 0.83, 453 0 M453 0 C475.09 -1.09, 485.87 11.76, 485 32 M453 0 C474.99 -0.89, 485.21 11.06, 485 32 M485 32 C485.65 127.08, 485.01 220.68, 485 273 M485 32 C483.05 80.55, 483.22 128.8, 485 273 M485 273 C484.19 292.65, 473.25 306.16, 453 305 M485 273 C485.79 295.34, 473.84 303.02, 453 305 M453 305 C320.09 305.75, 190.21 306.33, 32 305 M453 305 C352 305.21, 252.02 305.12, 32 305 M32 305 C12.09 303.49, -1.41 292.38, 0 273 M32 305 C10.29 305.17, 1.27 292.95, 0 273 M0 273 C0.66 190.65, -1.07 107.86, 0 32 M0 273 C2.5 213.71, 2.57 154.78, 0 32 M0 32 C0.64 9.79, 9.7 1.54, 32 0 M0 32 C-0.56 8.43, 8.96 -0.86, 32 0" stroke="#e03131" stroke-width="1" fill="none"></path></g><g transform="translate(1334 329) rotate(0 69.41197204589844 17.5)"><text x="0" y="0" font-family="Virgil, Segoe UI Emoji" font-size="28px" fill="#e03131" text-anchor="start" style="white-space: pre;" direction="ltr" dominant-baseline="text-before-edge">pg-dbmovie</text></g><g stroke-linecap="round" transform="translate(1316 99) rotate(0 146.5 48.5)"><path d="M24.25 0 M24.25 0 C102.42 0.2, 178.88 -0.65, 268.75 0 M24.25 0 C106.72 -2.03, 188.67 -1.2, 268.75 0 M268.75 0 C283.92 1.75, 294.39 7.44, 293 24.25 M268.75 0 C284.32 0.14, 292.32 6.68, 293 24.25 M293 24.25 C293.37 38.1, 292.94 52.53, 293 72.75 M293 24.25 C293.37 42.09, 292.92 62.13, 293 72.75 M293 72.75 C293.81 89.69, 283.51 98.06, 268.75 97 M293 72.75 C291.49 90.36, 283.23 98.4, 268.75 97 M268.75 97 C217.92 94.75, 167.77 94.55, 24.25 97 M268.75 97 C215.96 97.3, 162.63 96.74, 24.25 97 M24.25 97 C6.64 96.7, 1.01 89.33, 0 72.75 M24.25 97 C10 96.24, 0.72 89.01, 0 72.75 M0 72.75 C0.47 62.25, 0.73 49.34, 0 24.25 M0 72.75 C1.17 59.85, 0.3 46.63, 0 24.25 M0 24.25 C1.03 7.91, 9.12 0.07, 24.25 0 M0 24.25 C1.74 7.22, 8.8 -0.76, 24.25 0" stroke="#2f9e44" stroke-width="1" fill="none"></path></g><g transform="translate(1339 117) rotate(0 95.81595611572266 35)"><text x="0" y="0" font-family="Virgil, Segoe UI Emoji" font-size="28px" fill="#2f9e44" text-anchor="start" style="white-space: pre;" direction="ltr" dominant-baseline="text-before-edge">PostgreSQL:15</text><text x="0" y="35" font-family="Virgil, Segoe UI Emoji" font-size="28px" fill="#2f9e44" text-anchor="start" style="white-space: pre;" direction="ltr" dominant-baseline="text-before-edge">dbmovie</text></g><g transform="translate(1200.75 128) rotate(0 47.725982666015625 17.5)"><text x="0" y="0" font-family="Virgil, Segoe UI Emoji" font-size="28px" fill="#1971c2" text-anchor="start" style="white-space: pre;" direction="ltr" dominant-baseline="text-before-edge">*:5432</text></g><g stroke-linecap="round" transform="translate(1186.5 123) rotate(0 67.5 26)"><path d="M13 0 M13 0 C45.2 -1.5, 73.33 0.19, 122 0 M13 0 C38.48 0.1, 64.65 0.89, 122 0 M122 0 C129.51 -0.45, 136.75 3.25, 135 13 M122 0 C130.76 -1.79, 133.42 4.42, 135 13 M135 13 C135.83 22.64, 133.4 30.18, 135 39 M135 13 C133.88 21.26, 134.86 27.46, 135 39 M135 39 C136.3 46.61, 132.43 52.3, 122 52 M135 39 C135.48 45.6, 128.61 53.19, 122 52 M122 52 C80.29 51.62, 36.62 52.93, 13 52 M122 52 C84.75 51.68, 49.84 50.25, 13 52 M13 52 C6.32 52.19, 1.1 47.91, 0 39 M13 52 C4.03 52.99, 1.83 47.96, 0 39 M0 39 C0.93 32.88, -1.82 23.84, 0 13 M0 39 C0.72 32.06, -0.3 25.35, 0 13 M0 13 C2 4.7, 5.54 1.54, 13 0 M0 13 C0.78 4.42, 6.06 -0.72, 13 0" stroke="#1971c2" stroke-width="1" fill="none"></path></g><g transform="translate(1044.75 128) rotate(0 47.29198455810547 17.5)"><text x="0" y="0" font-family="Virgil, Segoe UI Emoji" font-size="28px" fill="#1971c2" text-anchor="start" style="white-space: pre;" direction="ltr" dominant-baseline="text-before-edge">*:5433</text></g><g stroke-linecap="round" transform="translate(1030.5 125) rotate(0 67.5 26)"><path d="M13 0 M13 0 C42.44 0.67, 73.83 -0.87, 122 0 M13 0 C41.24 -0.2, 69.82 0.73, 122 0 M122 0 C129.27 -1.14, 134.24 6.02, 135 13 M122 0 C129.1 -2.09, 133.26 6.35, 135 13 M135 13 C134.38 20.16, 133.71 24.2, 135 39 M135 13 C134.08 22.03, 134.31 30.21, 135 39 M135 39 C133.77 48.42, 129.89 52.01, 122 52 M135 39 C134.26 48.4, 131.91 52.4, 122 52 M122 52 C88.68 52.57, 51.97 53.06, 13 52 M122 52 C86.94 52.01, 53.99 51.34, 13 52 M13 52 C3.76 51.07, -0.99 46.72, 0 39 M13 52 C3.28 52.45, 0.54 48.2, 0 39 M0 39 C-0.91 29.04, 0.36 19.93, 0 13 M0 39 C-0.16 32.54, -0.79 27.83, 0 13 M0 13 C1.56 5.25, 3.38 -1.45, 13 0 M0 13 C-1.56 3.05, 2.8 -1.86, 13 0" stroke="#1971c2" stroke-width="1" fill="none"></path></g><g stroke-linecap="round"><g transform="translate(463 137.60416084257758) rotate(0 281.6197464501252 6.248924993663309)"><path d="M0.5 1.14 C94.52 3.02, 470.33 10.26, 563.94 11.81 M-0.7 0.69 C93.26 2.22, 469.27 8.48, 563.48 10.3" stroke="#1e1e1e" stroke-width="1" fill="none"></path></g><g transform="translate(463 137.60416084257758) rotate(0 281.6197464501252 6.248924993663309)"><path d="M537.01 21.62 C545.15 15.69, 550.97 14.75, 562.72 9.69 M536.01 19.52 C545.39 17.31, 554.27 12.78, 563.51 10.55" stroke="#1e1e1e" stroke-width="1" fill="none"></path></g><g transform="translate(463 137.60416084257758) rotate(0 281.6197464501252 6.248924993663309)"><path d="M537.37 1.11 C545.5 1.05, 551.22 5.98, 562.72 9.69 M536.37 -0.99 C545.53 4, 554.28 6.68, 563.51 10.55" stroke="#1e1e1e" stroke-width="1" fill="none"></path></g></g><mask></mask><g stroke-linecap="round" transform="translate(1323.5 228.5) rotate(0 146.5 48.5)"><path d="M24.25 0 M24.25 0 C73.69 0.37, 122.21 0.78, 268.75 0 M24.25 0 C113.19 0.21, 202.06 1.01, 268.75 0 M268.75 0 C286.77 1.37, 291.19 8.1, 293 24.25 M268.75 0 C283.49 -1.99, 294.77 8.02, 293 24.25 M293 24.25 C293.89 34.15, 292.43 45.7, 293 72.75 M293 24.25 C293 37.02, 292.27 47.33, 293 72.75 M293 72.75 C292.01 86.92, 286.29 97.93, 268.75 97 M293 72.75 C291.5 89.4, 285.63 95.9, 268.75 97 M268.75 97 C189.48 98.48, 111.99 100.05, 24.25 97 M268.75 97 C176.67 95.01, 84.98 96.08, 24.25 97 M24.25 97 C9.22 96.33, 0.68 88.79, 0 72.75 M24.25 97 C7.27 98.54, 1.94 88.55, 0 72.75 M0 72.75 C1.88 61.98, -0.23 51.58, 0 24.25 M0 72.75 C-0.07 54.07, -0.57 34.56, 0 24.25 M0 24.25 C0.48 9.11, 9.4 -1.54, 24.25 0 M0 24.25 C-0.16 9.81, 7.22 -2.2, 24.25 0" stroke="#2f9e44" stroke-width="1" fill="none"></path></g><g transform="translate(1345 255) rotate(0 64.8759765625 17.5)"><text x="0" y="0" font-family="Virgil, Segoe UI Emoji" font-size="28px" fill="#2f9e44" text-anchor="start" style="white-space: pre;" direction="ltr" dominant-baseline="text-before-edge">PGAdmin4</text></g><g stroke-linecap="round" transform="translate(1190.5 251) rotate(0 67.5 26)"><path d="M13 0 M13 0 C55.92 -0.92, 96.8 0.42, 122 0 M13 0 C52.44 1.48, 93.15 1.69, 122 0 M122 0 C131.7 -1.17, 136.56 6.24, 135 13 M122 0 C130.24 -0.02, 134.22 5.25, 135 13 M135 13 C135.67 21.04, 136.19 31.54, 135 39 M135 13 C136.07 21.01, 135.29 29.8, 135 39 M135 39 C135.86 47.59, 132.03 53.64, 122 52 M135 39 C135.51 45.56, 132.91 49.76, 122 52 M122 52 C97.8 50, 73.49 50.82, 13 52 M122 52 C96.65 53.36, 72.3 52.32, 13 52 M13 52 C4.41 50.31, 1.9 47.35, 0 39 M13 52 C6.37 53.67, 2.2 48.05, 0 39 M0 39 C0.81 29.49, -1 20.41, 0 13 M0 39 C-0.72 31.01, -0.66 23.05, 0 13 M0 13 C-0.31 3.69, 3.49 -1.51, 13 0 M0 13 C-0.65 2.6, 4.05 -0.42, 13 0" stroke="#1971c2" stroke-width="1" fill="none"></path></g><g transform="translate(1204.2740173339844 259.5) rotate(0 30.95398712158203 17.5)"><text x="0" y="0" font-family="Virgil, Segoe UI Emoji" font-size="28px" fill="#1971c2" text-anchor="start" style="white-space: pre;" direction="ltr" dominant-baseline="text-before-edge">*:80</text></g><g stroke-linecap="round" transform="translate(1030.5 252) rotate(0 67.5 26)"><path d="M13 0 M13 0 C38.87 0.06, 61.55 -1.5, 122 0 M13 0 C56.9 -0.86, 99.8 0.45, 122 0 M122 0 C132.42 -1.37, 136.29 5.39, 135 13 M122 0 C131.28 0.77, 134.78 6.02, 135 13 M135 13 C136.56 22.9, 133.87 30.84, 135 39 M135 13 C134.31 22.19, 134.34 30.81, 135 39 M135 39 C134.94 46.96, 132.49 52.11, 122 52 M135 39 C136.64 49.92, 132.28 50.81, 122 52 M122 52 C91.08 54.1, 57.73 52.64, 13 52 M122 52 C84.34 52.6, 47.88 52.28, 13 52 M13 52 C5.25 51.88, 0.91 49.54, 0 39 M13 52 C3.07 53.49, -0.9 48.84, 0 39 M0 39 C-1.24 32.22, -0.84 22.67, 0 13 M0 39 C-0.71 32.25, 0.25 22.87, 0 13 M0 13 C-0.36 2.39, 4.41 -1.64, 13 0 M0 13 C-2.09 6.52, 3.6 -1.23, 13 0" stroke="#1971c2" stroke-width="1" fill="none"></path></g><g transform="translate(1045.7080154418945 259.5) rotate(0 30.95398712158203 17.5)"><text x="0" y="0" font-family="Virgil, Segoe UI Emoji" font-size="28px" fill="#1971c2" text-anchor="start" style="white-space: pre;" direction="ltr" dominant-baseline="text-before-edge">*:80</text></g><g stroke-linecap="round"><g transform="translate(1444.8153355645345 226) rotate(0 -2.9073092059396686 -15.006780419959682)"><path d="M-0.21 -0.85 C-1.04 -6.13, -4.98 -26.42, -5.61 -31.33 M-1.77 1.32 C-2.17 -3.82, -2.89 -24.36, -3.31 -29.97" stroke="#2f9e44" stroke-width="1" fill="none"></path></g><g transform="translate(1444.8153355645345 226) rotate(0 -2.9073092059396686 -15.006780419959682)"><path d="M1.73 -16.58 C0.83 -18.06, 0.58 -21.18, -3.16 -30.6 M2.38 -14.91 C2.14 -18.59, -0.78 -22.89, -3.59 -30.75" stroke="#2f9e44" stroke-width="1" fill="none"></path></g><g transform="translate(1444.8153355645345 226) rotate(0 -2.9073092059396686 -15.006780419959682)"><path d="M-8.99 -16 C-7.22 -17.61, -4.81 -20.87, -3.16 -30.6 M-8.34 -14.34 C-6.06 -18.04, -6.45 -22.48, -3.59 -30.75" stroke="#2f9e44" stroke-width="1" fill="none"></path></g></g><mask></mask><g stroke-linecap="round" transform="translate(1179.75 383.5) rotate(0 242.5 152.5)"><path d="M32 0 M32 0 C173.23 -0.38, 315.54 -1.06, 453 0 M32 0 C134.68 1.78, 236.43 2.13, 453 0 M453 0 C475.96 -1.46, 486.42 10.58, 485 32 M453 0 C472.17 2.01, 484.06 12.73, 485 32 M485 32 C487.59 123.85, 487.34 218.81, 485 273 M485 32 C486.52 88.45, 486.66 143.7, 485 273 M485 273 C486.49 293.55, 475.86 303.41, 453 305 M485 273 C485.6 293.77, 473.17 304.57, 453 305 M453 305 C299.91 306.77, 148.19 307.37, 32 305 M453 305 C325.75 302.48, 197.98 302.68, 32 305 M32 305 C11.51 304.08, 0.55 295.42, 0 273 M32 305 C12.72 305.82, 1.73 295.6, 0 273 M0 273 C0.27 218.07, -1.84 164.08, 0 32 M0 273 C1.3 204.84, 1.54 138.47, 0 32 M0 32 C-1.16 10.85, 11.66 -0.43, 32 0 M0 32 C1.02 10.08, 9.84 -0.37, 32 0" stroke="#e03131" stroke-width="1" fill="none"></path></g><g transform="translate(1326.75 641.5) rotate(0 92.11996459960938 17.5)"><text x="0" y="0" font-family="Virgil, Segoe UI Emoji" font-size="28px" fill="#e03131" text-anchor="start" style="white-space: pre;" direction="ltr" dominant-baseline="text-before-edge">maria-dbmovie</text></g><g stroke-linecap="round" transform="translate(1308.75 411.5) rotate(0 146.5 48.5)"><path d="M24.25 0 M24.25 0 C112.6 0.28, 201.22 0.85, 268.75 0 M24.25 0 C81.04 -0.48, 137.09 0.08, 268.75 0 M268.75 0 C283.04 1.75, 292.18 9.88, 293 24.25 M268.75 0 C286.91 1.67, 291.79 9.65, 293 24.25 M293 24.25 C291.88 36.15, 291.47 46.82, 293 72.75 M293 24.25 C294.06 42.72, 294.08 61.18, 293 72.75 M293 72.75 C293.52 88.42, 283.9 96.63, 268.75 97 M293 72.75 C294.42 88.25, 286.95 95.46, 268.75 97 M268.75 97 C200.23 98.09, 130.03 99.06, 24.25 97 M268.75 97 C213.31 95.93, 157.4 96.76, 24.25 97 M24.25 97 C9.87 97.71, 1.5 90.02, 0 72.75 M24.25 97 C6.43 97.88, 0.18 90.35, 0 72.75 M0 72.75 C-0.09 56.11, 0.54 41.84, 0 24.25 M0 72.75 C-0.42 62.1, 0.65 51.05, 0 24.25 M0 24.25 C0.89 7.57, 7.37 -0.32, 24.25 0 M0 24.25 C1.14 7.14, 9.51 -0.12, 24.25 0" stroke="#2f9e44" stroke-width="1" fill="none"></path></g><g transform="translate(1331.75 429.5) rotate(0 70.55996704101562 35)"><text x="0" y="0" font-family="Virgil, Segoe UI Emoji" font-size="28px" fill="#2f9e44" text-anchor="start" style="white-space: pre;" direction="ltr" dominant-baseline="text-before-edge">MariaDB:11</text><text x="0" y="35" font-family="Virgil, Segoe UI Emoji" font-size="28px" fill="#2f9e44" text-anchor="start" style="white-space: pre;" direction="ltr" dominant-baseline="text-before-edge">dbmovie</text></g><g transform="translate(1193.5 440.5) rotate(0 48.27198028564453 17.5)"><text x="0" y="0" font-family="Virgil, Segoe UI Emoji" font-size="28px" fill="#1971c2" text-anchor="start" style="white-space: pre;" direction="ltr" dominant-baseline="text-before-edge">*:3306</text></g><g stroke-linecap="round" transform="translate(1179.25 435.5) rotate(0 67.5 26)"><path d="M13 0 M13 0 C51.28 2.4, 88.33 2.2, 122 0 M13 0 C44.81 -0.05, 78.3 -0.23, 122 0 M122 0 C129.62 1.36, 133.45 5.4, 135 13 M122 0 C131.41 -1.58, 136.27 2.27, 135 13 M135 13 C135.89 23.56, 134.44 32.67, 135 39 M135 13 C134.56 18.55, 135.69 24.18, 135 39 M135 39 C136.77 46.33, 130.28 51.9, 122 52 M135 39 C135.85 47.74, 131.15 49.81, 122 52 M122 52 C79.93 53.53, 38.3 53.24, 13 52 M122 52 C84.14 52.94, 44.06 52.77, 13 52 M13 52 C4.49 53.25, 0.12 46.38, 0 39 M13 52 C5.89 51.54, -2.08 47.93, 0 39 M0 39 C1.37 31.65, 0.38 27.62, 0 13 M0 39 C-0.47 31.59, 0.38 24.09, 0 13 M0 13 C1.24 4.23, 4.39 -1.73, 13 0 M0 13 C0.77 5.3, 4.13 -0.05, 13 0" stroke="#1971c2" stroke-width="1" fill="none"></path></g><g transform="translate(1037.5 440.5) rotate(0 48.27198028564453 17.5)"><text x="0" y="0" font-family="Virgil, Segoe UI Emoji" font-size="28px" fill="#1971c2" text-anchor="start" style="white-space: pre;" direction="ltr" dominant-baseline="text-before-edge">*:3306</text></g><g stroke-linecap="round" transform="translate(1023.25 437.5) rotate(0 67.5 26)"><path d="M13 0 M13 0 C54.45 -2.65, 97.83 -1.59, 122 0 M13 0 C54.97 -0.11, 97.21 -0.26, 122 0 M122 0 C131.31 -1.38, 136.11 2.54, 135 13 M122 0 C131.79 2.04, 136.52 5.1, 135 13 M135 13 C133.31 23.26, 134.4 31.46, 135 39 M135 13 C136.04 19.65, 134.97 27.58, 135 39 M135 39 C135.74 47.73, 131.08 50.09, 122 52 M135 39 C136.83 46.01, 132.12 51.21, 122 52 M122 52 C85.81 54.09, 48.17 53.8, 13 52 M122 52 C83.39 53.04, 44.68 51.77, 13 52 M13 52 C5.69 51.6, -1.81 47.9, 0 39 M13 52 C2.91 50.19, -0.74 49.01, 0 39 M0 39 C-0.45 33.59, -0.54 25.69, 0 13 M0 39 C0.49 31.57, -0.1 23.37, 0 13 M0 13 C0.67 5.18, 4.15 -0.05, 13 0 M0 13 C-2.07 5.84, 2.96 -0.43, 13 0" stroke="#1971c2" stroke-width="1" fill="none"></path></g><g stroke-linecap="round" transform="translate(1316.25 541) rotate(0 146.5 48.5)"><path d="M24.25 0 M24.25 0 C116.39 1.22, 207.14 3.33, 268.75 0 M24.25 0 C114.7 -0.93, 206.7 -1.94, 268.75 0 M268.75 0 C286.02 -1.79, 293.98 9.86, 293 24.25 M268.75 0 C286.43 0.76, 294.71 7.18, 293 24.25 M293 24.25 C292.12 41.49, 292.24 62, 293 72.75 M293 24.25 C293.23 37.34, 293.8 50.57, 293 72.75 M293 72.75 C293.42 87.01, 286.51 95.56, 268.75 97 M293 72.75 C294.45 88.13, 285.88 95.94, 268.75 97 M268.75 97 C189.28 100.04, 109.54 97.62, 24.25 97 M268.75 97 C186.1 97.73, 103.9 98.09, 24.25 97 M24.25 97 C6.28 97.23, -1.24 87.35, 0 72.75 M24.25 97 C7.35 98.34, -1.33 89.12, 0 72.75 M0 72.75 C-0.41 55.08, -0.22 39.83, 0 24.25 M0 72.75 C-0.27 59.33, 0.03 48.06, 0 24.25 M0 24.25 C-0.18 8.04, 6.29 1.31, 24.25 0 M0 24.25 C-1.38 7.65, 9.56 -1.99, 24.25 0" stroke="#2f9e44" stroke-width="1" fill="none"></path></g><g transform="translate(1337.75 567.5) rotate(0 79.12796783447266 17.5)"><text x="0" y="0" font-family="Virgil, Segoe UI Emoji" font-size="28px" fill="#2f9e44" text-anchor="start" style="white-space: pre;" direction="ltr" dominant-baseline="text-before-edge">PHPMyAdmin</text></g><g stroke-linecap="round" transform="translate(1183.25 563.5) rotate(0 67.5 26)"><path d="M13 0 M13 0 C42.68 -1.99, 70.82 -2.49, 122 0 M13 0 C52.08 -0.14, 90.55 1.64, 122 0 M122 0 C131.98 0.66, 136.49 3.55, 135 13 M122 0 C132.42 -1.82, 135.6 3.77, 135 13 M135 13 C134.37 21.25, 133.62 25.58, 135 39 M135 13 C135.3 19.72, 135.89 27.63, 135 39 M135 39 C136.26 46.98, 131.51 51.08, 122 52 M135 39 C135.63 48.91, 132.72 52.82, 122 52 M122 52 C81.88 51.37, 41.48 51.34, 13 52 M122 52 C95.4 51.9, 69.99 51, 13 52 M13 52 C3.69 53.17, -1.16 47.85, 0 39 M13 52 C5.47 51.51, 1.02 47.08, 0 39 M0 39 C-0.78 33.37, -0.06 25.32, 0 13 M0 39 C-0.18 33.43, -0.99 28.56, 0 13 M0 13 C-1.2 3.96, 5.62 -1.73, 13 0 M0 13 C0.41 5.32, 4.52 -1.27, 13 0" stroke="#1971c2" stroke-width="1" fill="none"></path></g><g transform="translate(1197.0240173339844 572) rotate(0 30.95398712158203 17.5)"><text x="0" y="0" font-family="Virgil, Segoe UI Emoji" font-size="28px" fill="#1971c2" text-anchor="start" style="white-space: pre;" direction="ltr" dominant-baseline="text-before-edge">*:80</text></g><g stroke-linecap="round" transform="translate(1023.25 564.5) rotate(0 67.5 26)"><path d="M13 0 M13 0 C41.05 1.49, 65.59 1.95, 122 0 M13 0 C36.6 -0.64, 59.63 -1.36, 122 0 M122 0 C132.19 -1.59, 135.52 3.84, 135 13 M122 0 C129.5 -0.43, 136.42 3.67, 135 13 M135 13 C134.73 23.83, 134.89 33.61, 135 39 M135 13 C135.84 17.98, 135.63 23.18, 135 39 M135 39 C135.55 48.75, 132.45 52.71, 122 52 M135 39 C136.73 48.93, 129.02 52.88, 122 52 M122 52 C87.17 53.42, 54.51 50.26, 13 52 M122 52 C87.72 51.73, 53.51 51.23, 13 52 M13 52 C5.33 51.57, 0.89 47.15, 0 39 M13 52 C3.51 51.63, 1.14 46.72, 0 39 M0 39 C-1.72 30.26, 0.86 20, 0 13 M0 39 C-0.36 31.07, 0.88 22.65, 0 13 M0 13 C0.36 5.19, 4.49 -1.1, 13 0 M0 13 C0.73 3.66, 4.22 0.63, 13 0" stroke="#1971c2" stroke-width="1" fill="none"></path></g><g transform="translate(1038.4580154418945 572) rotate(0 25.115989685058594 17.5)"><text x="0" y="0" font-family="Virgil, Segoe UI Emoji" font-size="28px" fill="#1971c2" text-anchor="start" style="white-space: pre;" direction="ltr" dominant-baseline="text-before-edge">*:81</text></g><g stroke-linecap="round"><g transform="translate(1424.070605005991 538.5) rotate(0 -4.5047475543276505 -15.25998170389795)"><path d="M0.66 -1.07 C-0.91 -5.93, -7.45 -25.01, -9.03 -29.93 M-0.45 0.98 C-2.16 -4.12, -8.22 -25.88, -9.67 -31.5" stroke="#2f9e44" stroke-width="1" fill="none"></path></g><g transform="translate(1424.070605005991 538.5) rotate(0 -4.5047475543276505 -15.25998170389795)"><path d="M-1.78 -17.44 C-1.9 -21.51, -5.91 -25.78, -10.31 -30.26 M-0.74 -18.38 C-1.92 -21.41, -3.77 -24.65, -9.83 -31.54" stroke="#2f9e44" stroke-width="1" fill="none"></path></g><g transform="translate(1424.070605005991 538.5) rotate(0 -4.5047475543276505 -15.25998170389795)"><path d="M-12.49 -14.53 C-9.03 -19.63, -9.48 -24.87, -10.31 -30.26 M-11.45 -15.48 C-10.28 -19.13, -9.76 -23, -9.83 -31.54" stroke="#2f9e44" stroke-width="1" fill="none"></path></g></g><mask></mask><g stroke-linecap="round" transform="translate(1011.9495143654162 810.221265241415) rotate(0 263.02808394291833 59.90430184040292)"><path d="M29.95 0 M29.95 0 C163.79 -0.88, 297.25 -1.08, 496.1 0 M29.95 0 C189.52 -1.17, 349.41 -1.24, 496.1 0 M496.1 0 C515.3 -1.94, 527.08 9.67, 526.06 29.95 M496.1 0 C516.87 -1.68, 525.37 9.15, 526.06 29.95 M526.06 29.95 C525.55 50.49, 526.83 69.61, 526.06 89.86 M526.06 29.95 C525.08 45.75, 525.15 61.14, 526.06 89.86 M526.06 89.86 C524.43 108.34, 517.78 117.9, 496.1 119.81 M526.06 89.86 C527.43 108.62, 515.31 120.84, 496.1 119.81 M496.1 119.81 C375.91 118.87, 254.36 119.01, 29.95 119.81 M496.1 119.81 C359.92 119.11, 223.74 119.13, 29.95 119.81 M29.95 119.81 C11.75 118.85, -1.53 110.57, 0 89.86 M29.95 119.81 C11.01 119.08, 0.26 110.31, 0 89.86 M0 89.86 C0.77 78.71, -1.15 65.64, 0 29.95 M0 89.86 C0.09 71.9, -0.66 53.15, 0 29.95 M0 29.95 C0.36 11.74, 9.85 1.15, 29.95 0 M0 29.95 C-1.08 11.67, 11.34 0.74, 29.95 0" stroke="#1e1e1e" stroke-width="1" fill="none"></path></g><g transform="translate(1122.033929850844 850.1574664683503) rotate(0 66.28997039794922 17.5)"><text x="0" y="0" font-family="Virgil, Segoe UI Emoji" font-size="28px" fill="#1e1e1e" text-anchor="start" style="white-space: pre;" direction="ltr" dominant-baseline="text-before-edge">Workbench</text></g><g stroke-linecap="round"><g transform="translate(1014.6193196542597 866.6827911139787) rotate(0 -57.582487536901226 -198.35891755285672)"><path d="M0.63 0.4 C-18.48 -33.43, -113.83 -136.9, -114.66 -203.15 C-115.49 -269.41, -22.7 -365.04, -4.34 -397.12 M-0.49 -0.43 C-19.8 -34.6, -115.01 -138.99, -115.79 -204.93 C-116.58 -270.87, -23.77 -363.95, -5.21 -396.07" stroke="#1e1e1e" stroke-width="1" fill="none"></path></g><g transform="translate(1014.6193196542597 866.6827911139787) rotate(0 -57.582487536901226 -198.35891755285672)"><path d="M-13.24 -367.96 C-10.15 -376.41, -9.49 -385.31, -3.62 -395.18 M-14.44 -367.72 C-11.96 -373.61, -10.9 -379.67, -4.29 -395.77" stroke="#1e1e1e" stroke-width="1" fill="none"></path></g><g transform="translate(1014.6193196542597 866.6827911139787) rotate(0 -57.582487536901226 -198.35891755285672)"><path d="M-29.66 -380.27 C-21.64 -385.09, -16.03 -390.29, -3.62 -395.18 M-30.86 -380.03 C-24.94 -383.31, -20.36 -386.73, -4.29 -395.77" stroke="#1e1e1e" stroke-width="1" fill="none"></path></g></g><mask></mask><g stroke-linecap="round"><g transform="translate(465.15227518711595 311.70730509829224) rotate(0 272.93465929679235 71.6190274937475)"><path d="M-0.66 -0.29 C90.24 23.73, 453.17 119.49, 544.34 143.68 M1.2 -1.49 C92.55 22.69, 455.7 120.11, 546.53 144.73" stroke="#1e1e1e" stroke-width="1" fill="none"></path></g><g transform="translate(465.15227518711595 311.70730509829224) rotate(0 272.93465929679235 71.6190274937475)"><path d="M516.15 145.64 C521.48 148.65, 529.73 147.23, 544.95 146.53 M515.84 147.43 C526.75 146.4, 538.25 146.07, 546.89 145.46" stroke="#1e1e1e" stroke-width="1" fill="none"></path></g><g transform="translate(465.15227518711595 311.70730509829224) rotate(0 272.93465929679235 71.6190274937475)"><path d="M521.49 125.83 C525.61 133.02, 532.72 135.83, 544.95 146.53 M521.18 127.62 C530.16 133.92, 539.68 140.93, 546.89 145.46" stroke="#1e1e1e" stroke-width="1" fill="none"></path></g></g><mask></mask><g stroke-linecap="round"><g transform="translate(528.4993529953581 577.489609815482) rotate(0 244.94513907541773 -205.37968025294342)"><path d="M-1.07 -0.3 C80.76 -68.83, 408.89 -341.98, 490.96 -410.46 M0.57 -1.5 C82.31 -69.89, 408.63 -340.84, 490.38 -408.97" stroke="#2f9e44" stroke-width="1" fill="none"></path></g><g transform="translate(528.4993529953581 577.489609815482) rotate(0 244.94513907541773 -205.37968025294342)"><path d="M474.77 -381.88 C479.48 -388.88, 482.77 -399.68, 490.55 -408.93 M475.77 -382.52 C479.41 -390.33, 482.47 -395.1, 491.31 -408.23" stroke="#2f9e44" stroke-width="1" fill="none"></path></g><g transform="translate(528.4993529953581 577.489609815482) rotate(0 244.94513907541773 -205.37968025294342)"><path d="M461.65 -397.65 C470.36 -399.83, 477.56 -405.93, 490.55 -408.93 M462.65 -398.29 C469.51 -402.03, 475.89 -402.81, 491.31 -408.23" stroke="#2f9e44" stroke-width="1" fill="none"></path></g></g><mask></mask><g stroke-linecap="round"><g transform="translate(534.0077945439009 764.776622465937) rotate(0 220.35219372147594 -149.89019262682172)"><path d="M0.04 1.18 C73.5 -48.83, 366.22 -250.66, 439.84 -300.96 M-1.4 0.76 C72.52 -49.04, 368.28 -249.78, 442.11 -299.82" stroke="#2f9e44" stroke-width="1" fill="none"></path></g><g transform="translate(534.0077945439009 764.776622465937) rotate(0 220.35219372147594 -149.89019262682172)"><path d="M426.51 -276.9 C427.33 -279.06, 431.79 -285.89, 441.13 -300.47 M425.48 -275.8 C430.75 -283.32, 435.2 -291.59, 441.93 -299.06" stroke="#2f9e44" stroke-width="1" fill="none"></path></g><g transform="translate(534.0077945439009 764.776622465937) rotate(0 220.35219372147594 -149.89019262682172)"><path d="M414.99 -293.89 C418.22 -292.31, 425.21 -295.4, 441.13 -300.47 M413.96 -292.78 C422.68 -294.92, 430.75 -297.86, 441.93 -299.06" stroke="#2f9e44" stroke-width="1" fill="none"></path></g></g><mask></mask></svg>