<svg version="1.1" xmlns="http://www.w3.org/2000/svg" viewBox="0 0 1363 666" width="1363" height="666">
  <!-- svg-source:excalidraw -->
  
  <defs>
    <style class="style-fonts">
      @font-face {
        font-family: "Virgil";
        src: url("https://excalidraw.com/Virgil.woff2");
      }
      @font-face {
        font-family: "Cascadia";
        src: url("https://excalidraw.com/Cascadia.woff2");
      }
    </style>
    
  </defs>
  <rect x="0" y="0" width="1363" height="666" fill="#ffffff"></rect><g stroke-linecap="round" transform="translate(32 53) rotate(0 147 83.5)"><path d="M32 0 M32 0 C79.64 1.5, 124.08 0.19, 262 0 M32 0 C115.46 0.71, 199.85 -0.62, 262 0 M262 0 C281.92 -0.78, 292.83 9.96, 294 32 M262 0 C284.81 -0.27, 293.28 12.79, 294 32 M294 32 C295.13 54.14, 294.42 79.88, 294 135 M294 32 C295.35 60.27, 294.83 89.4, 294 135 M294 135 C292.5 157.54, 282.74 166.7, 262 167 M294 135 C294.41 154.87, 284.06 165.38, 262 167 M262 167 C184.53 168.12, 109.61 168.08, 32 167 M262 167 C190.31 167.49, 116.65 168.11, 32 167 M32 167 C12.42 167.85, -1.61 158.27, 0 135 M32 167 C9.54 169.17, 1.32 158.33, 0 135 M0 135 C-0.92 103.1, -0.61 68.53, 0 32 M0 135 C0.99 109.53, 0.23 84.4, 0 32 M0 32 C0.2 11.79, 10.16 -1.45, 32 0 M0 32 C1.13 12.09, 11.53 0.66, 32 0" stroke="#1e1e1e" stroke-width="1" fill="none"></path></g><g transform="translate(62 115) rotate(0 108.54194641113281 17.5)"><text x="0" y="0" font-family="Virgil, Segoe UI Emoji" font-size="28px" fill="#1e1e1e" text-anchor="start" style="white-space: pre;" direction="ltr" dominant-baseline="text-before-edge">movieapp-1.0.war</text></g><g stroke-linecap="round" transform="translate(1073 10) rotate(0 135 138)"><path d="M32 0 M32 0 C84.09 0.65, 139.64 -0.45, 238 0 M32 0 C110.94 1.76, 191.24 1.54, 238 0 M238 0 C257.54 1.41, 268.6 10.8, 270 32 M238 0 C257.19 -1.95, 271.32 8.95, 270 32 M270 32 C267.28 89.75, 267.1 149.11, 270 244 M270 32 C269.43 111.43, 270.16 189.83, 270 244 M270 244 C269.43 267.02, 258.64 277.66, 238 276 M270 244 C270.55 264.96, 258.88 274.72, 238 276 M238 276 C197.77 278.16, 157.16 275.68, 32 276 M238 276 C172.87 275.55, 107.48 274.4, 32 276 M32 276 C10.66 277.16, -0.8 265.38, 0 244 M32 276 C10.03 273.99, -2.16 266.67, 0 244 M0 244 C-0.55 198.89, 0.31 152.82, 0 32 M0 244 C-1.64 186.63, -1.45 127.23, 0 32 M0 32 C0.67 9.31, 12.08 1.17, 32 0 M0 32 C0.78 11.65, 11.75 -1.19, 32 0" stroke="#1e1e1e" stroke-width="1" fill="none"></path></g><g transform="translate(1109 37) rotate(0 90.52395629882812 52.5)"><text x="0" y="0" font-family="Virgil, Segoe UI Emoji" font-size="28px" fill="#1e1e1e" text-anchor="start" style="white-space: pre;" direction="ltr" dominant-baseline="text-before-edge">database</text><text x="0" y="35" font-family="Virgil, Segoe UI Emoji" font-size="28px" fill="#1e1e1e" text-anchor="start" style="white-space: pre;" direction="ltr" dominant-baseline="text-before-edge">dbmovie</text><text x="0" y="70" font-family="Virgil, Segoe UI Emoji" font-size="28px" fill="#1e1e1e" text-anchor="start" style="white-space: pre;" direction="ltr" dominant-baseline="text-before-edge">(PostgreSQL)</text></g><g stroke-linecap="round" transform="translate(1083 351) rotate(0 135 138)"><path d="M32 0 M32 0 C102.27 -0.25, 173.5 0.61, 238 0 M32 0 C95.53 -1.79, 159.58 -1.48, 238 0 M238 0 C259.78 1.53, 268.17 9.84, 270 32 M238 0 C261.42 -0.69, 270.45 12.39, 270 32 M270 32 C270.54 99, 273.05 169.48, 270 244 M270 32 C268.89 96.72, 268.71 160.68, 270 244 M270 244 C271.02 267.07, 259.39 277.31, 238 276 M270 244 C267.79 265.43, 260.98 273.79, 238 276 M238 276 C187.61 275.41, 135.72 275.37, 32 276 M238 276 C183.72 276.9, 129.29 278.15, 32 276 M32 276 C12.11 274.76, -0.05 265.42, 0 244 M32 276 C12.32 274.83, -0.86 265.96, 0 244 M0 244 C0.99 160.13, -0.75 73.26, 0 32 M0 244 C-0.6 183.62, -0.37 122.25, 0 32 M0 32 C-0.3 10.85, 12.3 -1.16, 32 0 M0 32 C-0.7 9.85, 9.4 0.11, 32 0" stroke="#1e1e1e" stroke-width="1" fill="none"></path></g><g transform="translate(1127 385) rotate(0 70.12596893310547 52.5)"><text x="0" y="0" font-family="Virgil, Segoe UI Emoji" font-size="28px" fill="#1e1e1e" text-anchor="start" style="white-space: pre;" direction="ltr" dominant-baseline="text-before-edge">database</text><text x="0" y="35" font-family="Virgil, Segoe UI Emoji" font-size="28px" fill="#1e1e1e" text-anchor="start" style="white-space: pre;" direction="ltr" dominant-baseline="text-before-edge">dbmovie</text><text x="0" y="70" font-family="Virgil, Segoe UI Emoji" font-size="28px" fill="#1e1e1e" text-anchor="start" style="white-space: pre;" direction="ltr" dominant-baseline="text-before-edge">(MariaDB)</text></g><g stroke-linecap="round" transform="translate(10 11) rotate(0 397 322.5)"><path d="M32 0 M32 0 C300.64 -0.35, 570.55 -1.38, 762 0 M32 0 C187.59 -1.5, 343.86 -1.99, 762 0 M762 0 C781.39 -0.65, 793.25 10.82, 794 32 M762 0 C784.69 -1.85, 793.09 10.39, 794 32 M794 32 C794.29 173.68, 794.67 316, 794 613 M794 32 C794.05 195.3, 794.6 358.03, 794 613 M794 613 C793.65 633.95, 781.6 646.2, 762 645 M794 613 C795.83 633.18, 781.29 645.52, 762 645 M762 645 C542.21 646.87, 321.29 646.8, 32 645 M762 645 C581.91 642.47, 401.51 642.45, 32 645 M32 645 C10.37 644.21, 0.01 633.78, 0 613 M32 645 C10.96 647.05, -1.58 635.49, 0 613 M0 613 C0.42 389.07, 0.39 167.04, 0 32 M0 613 C0.55 430.27, 0.69 248.11, 0 32 M0 32 C1.29 10.85, 10.48 0.18, 32 0 M0 32 C1 11.91, 11.36 -1.53, 32 0" stroke="#f08c00" stroke-width="1" fill="none"></path></g><g transform="translate(134 571) rotate(0 78.46196746826172 22.5)"><text x="0" y="0" font-family="Virgil, Segoe UI Emoji" font-size="36px" fill="#f08c00" text-anchor="start" style="white-space: pre;" direction="ltr" dominant-baseline="text-before-edge">WILDFLY</text></g><g stroke-linecap="round" transform="translate(94 158) rotate(0 80.5 23)"><path d="M11.5 0 M11.5 0 C46.75 1.06, 81.71 1.45, 149.5 0 M11.5 0 C65.83 -0.36, 122.32 -0.78, 149.5 0 M149.5 0 C155.88 -1.73, 162.85 2.47, 161 11.5 M149.5 0 C156.7 1.91, 159.66 4.33, 161 11.5 M161 11.5 C161.01 17.72, 160.71 25.1, 161 34.5 M161 11.5 C161.76 17.57, 161.56 25.41, 161 34.5 M161 34.5 C161 43.66, 159.03 45.55, 149.5 46 M161 34.5 C160.45 41.37, 158.42 46.84, 149.5 46 M149.5 46 C103.49 47.65, 57.44 46.23, 11.5 46 M149.5 46 C96.25 47.15, 44.67 47.5, 11.5 46 M11.5 46 C2.95 45.35, 0.4 40.73, 0 34.5 M11.5 46 C4.11 45.61, 1.84 44.23, 0 34.5 M0 34.5 C-0.63 29.42, 1.13 23.21, 0 11.5 M0 34.5 C1.2 27.75, 0.61 22.66, 0 11.5 M0 11.5 C-1.61 5, 2.31 1.88, 11.5 0 M0 11.5 C-0.77 6, 4.27 -0.07, 11.5 0" stroke="#f08c00" stroke-width="1" fill="none"></path></g><g transform="translate(109 171) rotate(0 60.02995300292969 12.5)"><text x="0" y="0" font-family="Virgil, Segoe UI Emoji" font-size="20px" fill="#f08c00" text-anchor="start" style="white-space: pre;" direction="ltr" dominant-baseline="text-before-edge">driver JDBC</text></g><g stroke-linecap="round"><g transform="translate(117 148) rotate(0 39.394628844480025 32.812436611363665)"><path d="M0.9 0.03 C14.23 10.73, 65.92 54.14, 78.87 65.06 M-0.09 -1 C13.18 9.83, 64.9 55.88, 77.86 66.62" stroke="#e03131" stroke-width="1" fill="none"></path></g></g><mask></mask><g stroke-linecap="round"><g transform="translate(132 213) rotate(0 31.796202301452865 -32.4424634806812)"><path d="M-0.8 0.59 C9.57 -10.4, 51.58 -54.67, 62.14 -65.48 M0.97 -0.14 C11.73 -11.02, 54.3 -53.18, 64.4 -64.19" stroke="#e03131" stroke-width="1" fill="none"></path></g></g><mask></mask><g stroke-linecap="round" transform="translate(47.5 383) rotate(0 150.5 23)"><path d="M11.5 0 M11.5 0 C84.86 0.65, 154.52 -0.72, 289.5 0 M11.5 0 C67.41 0.69, 123.77 0.99, 289.5 0 M289.5 0 C296.18 -0.7, 302.92 3.63, 301 11.5 M289.5 0 C298.18 -2.16, 302.86 2.2, 301 11.5 M301 11.5 C300.64 20.59, 301.97 29.78, 301 34.5 M301 11.5 C301.53 18.16, 302.1 24.58, 301 34.5 M301 34.5 C300.62 41.49, 296 46.19, 289.5 46 M301 34.5 C302.96 40.3, 296.63 47.77, 289.5 46 M289.5 46 C204.4 43.03, 121.79 44, 11.5 46 M289.5 46 C219.22 47.4, 147.67 46.84, 11.5 46 M11.5 46 C2.96 46.8, -0.7 43.17, 0 34.5 M11.5 46 C1.64 44.8, 0.89 41.37, 0 34.5 M0 34.5 C-1.14 29.65, 0.31 24.87, 0 11.5 M0 34.5 C-0.82 26.07, 0.39 16.21, 0 11.5 M0 11.5 C-0.44 4.48, 2.81 -1.05, 11.5 0 M0 11.5 C-0.63 1.86, 4.53 2.17, 11.5 0" stroke="#f08c00" stroke-width="1" fill="none"></path></g><g transform="translate(62.5 396) rotate(0 122.15989685058594 12.5)"><text x="0" y="0" font-family="Virgil, Segoe UI Emoji" font-size="20px" fill="#f08c00" text-anchor="start" style="white-space: pre;" direction="ltr" dominant-baseline="text-before-edge">driver JDBC PostgreSQL</text></g><g stroke-linecap="round" transform="translate(51.5 450) rotate(0 150.5 23)"><path d="M11.5 0 M11.5 0 C103.97 -1.11, 197.39 -1.3, 289.5 0 M11.5 0 C88.98 -2.43, 167.94 -2.14, 289.5 0 M289.5 0 C296.37 -1.3, 301.05 3.87, 301 11.5 M289.5 0 C296.96 0.34, 300.11 6.03, 301 11.5 M301 11.5 C301.44 16.19, 300.8 21.05, 301 34.5 M301 11.5 C300.29 17.33, 300.33 22.9, 301 34.5 M301 34.5 C301.27 42.65, 298.22 46.04, 289.5 46 M301 34.5 C300.65 41.08, 296.88 43.77, 289.5 46 M289.5 46 C193.32 43.17, 95.48 45.38, 11.5 46 M289.5 46 C217.86 47.78, 145.55 48.08, 11.5 46 M11.5 46 C5.72 45.05, 0.72 40.64, 0 34.5 M11.5 46 C5.49 47.24, -1.33 41.18, 0 34.5 M0 34.5 C1.16 24.68, -0.33 16.6, 0 11.5 M0 34.5 C-0.72 27.17, -0.78 20.97, 0 11.5 M0 11.5 C-1.75 4.38, 1.92 -1.96, 11.5 0 M0 11.5 C1.27 3.3, 5.76 -1.56, 11.5 0" stroke="#f08c00" stroke-width="1" fill="none"></path></g><g transform="translate(65 463) rotate(0 107.58992767333984 12.5)"><text x="0" y="0" font-family="Virgil, Segoe UI Emoji" font-size="20px" fill="#f08c00" text-anchor="start" style="white-space: pre;" direction="ltr" dominant-baseline="text-before-edge">driver JDBC MariaDB</text></g><g stroke-linecap="round" transform="translate(466 228) rotate(0 117 106)"><path d="M32 0 M32 0 C99.64 0.79, 166.29 -2.38, 202 0 M32 0 C89.76 -0.12, 148.68 -0.61, 202 0 M202 0 C223.98 0.53, 232.69 11.13, 234 32 M202 0 C222.6 2.02, 235.48 8.83, 234 32 M234 32 C233.5 85, 231.79 135.58, 234 180 M234 32 C231.99 82.7, 233.92 133.43, 234 180 M234 180 C235.6 201.88, 222.68 213.6, 202 212 M234 180 C233.03 200.99, 224.61 211.36, 202 212 M202 212 C148.64 210.83, 99.75 213.54, 32 212 M202 212 C149.7 212.8, 94.96 213.86, 32 212 M32 212 C10.37 210.52, 0.26 202.71, 0 180 M32 212 C9.09 211.24, -2.3 201.28, 0 180 M0 180 C1.87 127.27, 1.87 73.75, 0 32 M0 180 C-1.55 127.56, -0.26 74.3, 0 32 M0 32 C-0.93 12.51, 9.15 1.81, 32 0 M0 32 C1.92 12.3, 11.28 -0.49, 32 0" stroke="#2f9e44" stroke-width="1" fill="none"></path></g><g transform="translate(501 254) rotate(0 58.229949951171875 87.5)"><text x="0" y="0" font-family="Virgil, Segoe UI Emoji" font-size="20px" fill="#2f9e44" text-anchor="start" style="white-space: pre;" direction="ltr" dominant-baseline="text-before-edge">Datasource</text><text x="0" y="25" font-family="Virgil, Segoe UI Emoji" font-size="20px" fill="#2f9e44" text-anchor="start" style="white-space: pre;" direction="ltr" dominant-baseline="text-before-edge">- driver</text><text x="0" y="50" font-family="Virgil, Segoe UI Emoji" font-size="20px" fill="#2f9e44" text-anchor="start" style="white-space: pre;" direction="ltr" dominant-baseline="text-before-edge">- host</text><text x="0" y="75" font-family="Virgil, Segoe UI Emoji" font-size="20px" fill="#2f9e44" text-anchor="start" style="white-space: pre;" direction="ltr" dominant-baseline="text-before-edge">- port</text><text x="0" y="100" font-family="Virgil, Segoe UI Emoji" font-size="20px" fill="#2f9e44" text-anchor="start" style="white-space: pre;" direction="ltr" dominant-baseline="text-before-edge">- dbname</text><text x="0" y="125" font-family="Virgil, Segoe UI Emoji" font-size="20px" fill="#2f9e44" text-anchor="start" style="white-space: pre;" direction="ltr" dominant-baseline="text-before-edge">- user</text><text x="0" y="150" font-family="Virgil, Segoe UI Emoji" font-size="20px" fill="#2f9e44" text-anchor="start" style="white-space: pre;" direction="ltr" dominant-baseline="text-before-edge">-paswword</text></g><g stroke-linecap="round"><g transform="translate(459.5757575757575 325.59972875258075) rotate(0 -72.28564836617244 33.16718315218995)"><path d="M-0.03 0.74 C-23.86 11.98, -119.69 55.4, -143.38 66.25 M-1.5 0.08 C-25.49 11.1, -121.05 53.98, -144.55 64.59" stroke="#2f9e44" stroke-width="1" fill="none"></path></g><g transform="translate(459.5757575757575 325.59972875258075) rotate(0 -72.28564836617244 33.16718315218995)"><path d="M-121.82 42.98 C-127.52 50.61, -133.93 56.19, -143.72 65.77 M-122.42 44.38 C-130.39 50.74, -137.78 58.1, -143.64 65.43" stroke="#2f9e44" stroke-width="1" fill="none"></path></g><g transform="translate(459.5757575757575 325.59972875258075) rotate(0 -72.28564836617244 33.16718315218995)"><path d="M-113.39 61.69 C-121.15 64.33, -129.81 64.91, -143.72 65.77 M-113.99 63.09 C-125.11 62.55, -135.59 63.07, -143.64 65.43" stroke="#2f9e44" stroke-width="1" fill="none"></path></g></g><mask></mask><g stroke-linecap="round"><g transform="translate(707.709090909091 334.2162906506184) rotate(0 181.0310420971859 -111.61144050209066)"><path d="M0.68 0.39 C60.9 -36.77, 302.24 -186.37, 362.48 -223.61 M-0.41 -0.45 C59.63 -37.45, 301.72 -185.74, 362.08 -222.67" stroke="#2f9e44" stroke-width="1" fill="none"></path></g><g transform="translate(707.709090909091 334.2162906506184) rotate(0 181.0310420971859 -111.61144050209066)"><path d="M344.04 -197.46 C349.08 -207.53, 357.44 -219.17, 363.89 -222.78 M343.45 -199.08 C347.1 -204.23, 351.66 -208.57, 361.92 -222.35" stroke="#2f9e44" stroke-width="1" fill="none"></path></g><g transform="translate(707.709090909091 334.2162906506184) rotate(0 181.0310420971859 -111.61144050209066)"><path d="M333.32 -214.96 C342.53 -218.12, 355.17 -222.79, 363.89 -222.78 M332.73 -216.58 C338.43 -218.1, 345.2 -218.85, 361.92 -222.35" stroke="#2f9e44" stroke-width="1" fill="none"></path></g></g><mask></mask><g stroke-linecap="round" transform="translate(437 38) rotate(0 150.5 77.5)"><path d="M32 0 M32 0 C87.76 -2.72, 144.29 -0.03, 269 0 M32 0 C88.02 0.84, 145.5 -0.31, 269 0 M269 0 C290.54 0.66, 300.6 12.21, 301 32 M269 0 C289.34 1.43, 301.12 10.49, 301 32 M301 32 C301.84 58.75, 300.18 90.33, 301 123 M301 32 C300.75 58.12, 301.25 83.25, 301 123 M301 123 C301.96 145.95, 290.46 156.54, 269 155 M301 123 C303.01 145.88, 290.44 155.21, 269 155 M269 155 C212.59 157.17, 157.25 154.75, 32 155 M269 155 C204.47 153.72, 138.41 154.23, 32 155 M32 155 C10.73 153.99, -1.6 145.43, 0 123 M32 155 C11.06 154.99, -1.44 142.39, 0 123 M0 123 C0.9 94.38, -1.65 63.72, 0 32 M0 123 C0.17 95.24, 1.51 67.3, 0 32 M0 32 C-1.58 12.31, 10.44 0.19, 32 0 M0 32 C-1.64 11.16, 10.57 0.96, 32 0" stroke="#1971c2" stroke-width="1" fill="none"></path></g><g transform="translate(477 53) rotate(0 26.029983520507812 12.5)"><text x="0" y="0" font-family="Virgil, Segoe UI Emoji" font-size="20px" fill="#1971c2" text-anchor="start" style="white-space: pre;" direction="ltr" dominant-baseline="text-before-edge">JNDI</text></g><g stroke-linecap="round" transform="translate(463 95) rotate(0 63 14)"><path d="M7 0 M7 0 C40.99 -1.47, 69.7 2.08, 119 0 M7 0 C39.54 0.75, 72.07 0.75, 119 0 M119 0 C122.69 0.37, 125.13 1.7, 126 7 M119 0 C122.73 2.21, 124.26 0.7, 126 7 M126 7 C125.9 11.07, 126.64 16.53, 126 21 M126 7 C126.74 10.39, 125.99 13.18, 126 21 M126 21 C127.88 27.21, 122.71 29.79, 119 28 M126 21 C126.89 25.67, 122.63 29.08, 119 28 M119 28 C88.5 29.55, 53.38 28.4, 7 28 M119 28 C89.81 29.58, 61.75 29.59, 7 28 M7 28 C2.26 28.34, 1.97 24.61, 0 21 M7 28 C1.12 26.25, -0.04 25.18, 0 21 M0 21 C0.75 14.69, -0.79 10.3, 0 7 M0 21 C-0.4 17.36, -0.17 14.84, 0 7 M0 7 C0.76 2.9, 1.58 -1.69, 7 0 M0 7 C1.04 0.51, 2.67 -1.16, 7 0" stroke="#f08c00" stroke-width="1" fill="none"></path></g><g transform="translate(476 99) rotate(0 38.63996124267578 12.5)"><text x="0" y="0" font-family="Virgil, Segoe UI Emoji" font-size="20px" fill="#f08c00" text-anchor="start" style="white-space: pre;" direction="ltr" dominant-baseline="text-before-edge">movieDS</text></g><g stroke-linecap="round"><g transform="translate(571 111) rotate(0 2.4928200537664793 59.388184480671754)"><path d="M-1.01 0.01 C-0.22 19.98, 2.91 99.87, 3.88 119.8 M0.66 -1.03 C1.88 18.6, 5.45 98.33, 6 118.1" stroke="#1971c2" stroke-width="1" fill="none"></path></g><g transform="translate(571 111) rotate(0 2.4928200537664793 59.388184480671754)"><path d="M-5.3 88.44 C-1.41 96.39, 0.84 104.51, 6.01 116.46 M-6.11 90.66 C-1.26 101.81, 3.78 112.34, 6.37 119.02" stroke="#1971c2" stroke-width="1" fill="none"></path></g><g transform="translate(571 111) rotate(0 2.4928200537664793 59.388184480671754)"><path d="M15.21 87.67 C14.43 95.62, 12.01 103.92, 6.01 116.46 M14.4 89.89 C11.17 101.26, 8.14 112.1, 6.37 119.02" stroke="#1971c2" stroke-width="1" fill="none"></path></g></g><mask></mask><g stroke-linecap="round"><g transform="translate(313 119) rotate(0 77.47749520681333 -4.113192807883024)"><path d="M0.55 0.41 C26.44 -1.05, 129.7 -7.06, 155.57 -8.63 M-0.62 -0.42 C25.06 -1.74, 128.48 -6.12, 154.4 -7.43" stroke="#1971c2" stroke-width="1" fill="none"></path></g><g transform="translate(313 119) rotate(0 77.47749520681333 -4.113192807883024)"><path d="M127.39 3.4 C134.49 -0.09, 142.63 -2.86, 152.56 -8.87 M127.63 4.65 C136.72 0.58, 146.62 -4.15, 155.4 -8.36" stroke="#1971c2" stroke-width="1" fill="none"></path></g><g transform="translate(313 119) rotate(0 77.47749520681333 -4.113192807883024)"><path d="M126.45 -17.1 C133.86 -14.04, 142.31 -10.27, 152.56 -8.87 M126.69 -15.85 C136.06 -12.53, 146.31 -9.87, 155.4 -8.36" stroke="#1971c2" stroke-width="1" fill="none"></path></g></g><mask></mask><g stroke-linecap="round" transform="translate(482 456) rotate(0 106 75)"><path d="M32 0 M32 0 C65.23 -0.99, 94.84 -1.44, 180 0 M180 0 C202.43 1.55, 212.47 11.26, 212 32 M212 32 C210.71 56.33, 210.26 76.07, 212 118 M212 118 C212.7 138.1, 202.84 148.95, 180 150 M180 150 C147.54 149.09, 118.14 149.03, 32 150 M32 150 C10.33 151.13, -1.79 139.58, 0 118 M0 118 C1.05 91.2, -1.36 64, 0 32 M0 32 C-0.25 8.98, 11.98 -0.64, 32 0" stroke="#2f9e44" stroke-width="1.5" fill="none" stroke-dasharray="8 9"></path></g><g stroke-linecap="round"><g transform="translate(492 504) rotate(0 -70.79791574552655 -12.990952312201216)"><path d="M1.12 -0.34 C-22.78 -4.6, -118.96 -21.37, -142.72 -25.64" stroke="#2f9e44" stroke-width="1.5" fill="none" stroke-dasharray="8 9"></path></g><g transform="translate(492 504) rotate(0 -70.79791574552655 -12.990952312201216)"><path d="M-113.74 -32.03 C-123.04 -27.72, -134.04 -25.6, -141.11 -26" stroke="#2f9e44" stroke-width="1.5" fill="none"></path></g><g transform="translate(492 504) rotate(0 -70.79791574552655 -12.990952312201216)"><path d="M-117.31 -11.82 C-125.33 -14.71, -135.07 -19.75, -141.11 -26" stroke="#2f9e44" stroke-width="1.5" fill="none"></path></g></g><mask></mask><g stroke-linecap="round"><g transform="translate(674 505) rotate(0 201.96675679609177 -45.18269585296514)"><path d="M-1.13 -0.55 C66.41 -15.61, 337.42 -74.9, 405.06 -89.81" stroke="#2f9e44" stroke-width="1.5" fill="none" stroke-dasharray="8 9"></path></g><g transform="translate(674 505) rotate(0 201.96675679609177 -45.18269585296514)"><path d="M378.81 -73.64 C387.23 -78.59, 394.17 -84.63, 403.49 -89.03" stroke="#2f9e44" stroke-width="1.5" fill="none"></path></g><g transform="translate(674 505) rotate(0 201.96675679609177 -45.18269585296514)"><path d="M374.41 -93.68 C384.18 -92.85, 392.38 -93.14, 403.49 -89.03" stroke="#2f9e44" stroke-width="1.5" fill="none"></path></g></g><mask></mask><g stroke-linecap="round"><g transform="translate(573 115) rotate(0 140.7928894136976 188.09346873834727)"><path d="M0.31 0.48 C46.99 21.38, 263.7 63.24, 280.14 125.78 C296.58 188.32, 129.09 334.27, 98.95 375.71" stroke="#1971c2" stroke-width="1.5" fill="none" stroke-dasharray="8 9"></path></g><g transform="translate(573 115) rotate(0 140.7928894136976 188.09346873834727)"><path d="M111.27 348.25 C106.71 354.68, 104.77 363.68, 97.94 374.71" stroke="#1971c2" stroke-width="1.5" fill="none"></path></g><g transform="translate(573 115) rotate(0 140.7928894136976 188.09346873834727)"><path d="M126.38 362.13 C117.2 364.4, 110.68 369.19, 97.94 374.71" stroke="#1971c2" stroke-width="1.5" fill="none"></path></g></g><mask></mask></svg>